<svg width="481" height="381" viewBox="0 0 481 381" fill="none" xmlns="http://www.w3.org/2000/svg">
<circle cx="240" cy="192" r="180" fill="black"/>
<mask id="path-2-outside-1_12_21" maskUnits="userSpaceOnUse" x="35" y="143" width="413" height="81" fill="black">
<rect fill="white" x="35" y="143" width="413" height="81"/>
<path d="M113.348 146.17C114.668 146.17 115.568 146.47 116.048 147.07C116.588 147.67 116.858 148.6 116.858 149.86C116.858 152.2 116.288 154.39 115.148 156.43C114.068 158.47 112.448 160.12 110.288 161.38C108.128 162.58 105.578 163.18 102.638 163.18C100.838 163.18 99.2779 163 97.9579 162.64C96.6379 162.28 94.9879 161.74 93.0079 161.02C90.9079 160.18 89.0179 159.55 87.3379 159.13C85.6579 158.71 83.6179 158.5 81.2179 158.5C76.8379 158.5 73.2079 159.19 70.3279 160.57C67.4479 161.95 66.0079 163.99 66.0079 166.69C66.0079 167.89 66.3379 168.91 66.9979 169.75C67.6579 170.53 68.4679 170.92 69.4279 170.92C69.6679 171.64 69.7879 172.21 69.7879 172.63C69.7879 174.07 69.2779 175.57 68.2579 177.13C67.2379 178.69 65.7979 180.01 63.9379 181.09C62.1379 182.11 60.0379 182.62 57.6379 182.62C54.0979 182.62 51.3379 181.42 49.3579 179.02C47.3779 176.56 46.3879 173.59 46.3879 170.11C46.3879 165.79 47.8279 161.83 50.7079 158.23C53.5879 154.63 57.7879 151.78 63.3079 149.68C68.8879 147.52 75.4879 146.44 83.1079 146.44C86.2279 146.44 89.7679 146.56 93.7279 146.8C97.0879 147.04 99.6679 147.16 101.468 147.16C104.648 147.16 107.618 146.92 110.378 146.44C110.858 146.38 111.338 146.32 111.818 146.26C112.358 146.2 112.868 146.17 113.348 146.17ZM98.6779 179.74C100.358 179.74 101.498 180.04 102.098 180.64C102.758 181.18 103.088 181.99 103.088 183.07C103.088 184.15 102.758 185.26 102.098 186.4C101.438 187.54 100.418 188.5 99.0379 189.28C97.6579 190.06 95.9779 190.45 93.9979 190.45C91.4179 190.45 88.8379 190.3 86.2579 190C85.4179 192.46 84.5179 194.77 83.5579 196.93C80.1979 204.97 76.1779 210.97 71.4979 214.93C66.8179 218.83 61.5979 220.78 55.8379 220.78C51.8779 220.78 48.5779 220.06 45.9379 218.62C43.3579 217.18 41.4679 215.32 40.2679 213.04C39.0079 210.76 38.3779 208.3 38.3779 205.66C38.3779 203.2 38.8879 200.83 39.9079 198.55C40.9279 196.27 42.3379 194.44 44.1379 193.06C45.9379 191.68 48.0079 190.99 50.3479 190.99C50.7079 190.99 51.0079 191.11 51.2479 191.35C51.5479 191.53 51.6979 191.77 51.6979 192.07C51.6979 194.05 52.4779 195.67 54.0379 196.93C55.5979 198.13 57.6679 198.73 60.2479 198.73C62.8279 198.73 65.4979 197.86 68.2579 196.12C71.0179 194.38 73.4479 191.74 75.5479 188.2C74.3479 188.08 73.5079 188.02 73.0279 188.02C72.0079 188.02 71.2279 187.72 70.6879 187.12C70.2079 186.52 69.9679 185.71 69.9679 184.69C69.9679 183.31 70.4179 182.2 71.3179 181.36C72.2179 180.52 73.5379 180.1 75.2779 180.1H79.0579L80.2279 176.95C80.5879 176.05 81.0979 174.64 81.7579 172.72C82.4779 170.8 83.1079 169.18 83.6479 167.86C84.7279 164.98 86.6779 163.54 89.4979 163.54C92.4979 163.54 93.9979 164.56 93.9979 166.6C93.9979 166.96 93.8779 167.56 93.6379 168.4C92.6179 171.76 91.3579 175.6 89.8579 179.92L98.6779 179.74ZM147.905 192.34C148.145 191.92 148.595 191.71 149.255 191.71C150.095 191.71 150.845 192.01 151.505 192.61C152.165 193.21 152.315 193.87 151.955 194.59C150.275 198.13 148.205 201.07 145.745 203.41C143.285 205.75 140.105 206.92 136.205 206.92H135.125C132.845 210.04 130.145 212.5 127.025 214.3C123.965 216.1 120.785 217 117.485 217C113.345 217 109.985 215.65 107.405 212.95C104.825 210.19 103.535 206.5 103.535 201.88C103.535 197.32 104.615 192.73 106.775 188.11C108.995 183.43 111.995 179.59 115.775 176.59C119.555 173.53 123.725 172 128.285 172C132.245 172 135.425 173.26 137.825 175.78C140.225 178.24 141.425 182.14 141.425 187.48C141.425 190.66 140.975 193.75 140.075 196.75H140.705C143.465 196.75 145.865 195.28 147.905 192.34ZM122.615 198.37C124.055 198.37 125.345 197.95 126.485 197.11C127.685 196.21 128.615 195.1 129.275 193.78C129.935 192.46 130.265 191.17 130.265 189.91C130.265 188.53 129.845 187.39 129.005 186.49C128.225 185.59 126.995 185.14 125.315 185.14C123.215 185.14 121.445 186.01 120.005 187.75C118.625 189.49 117.935 191.41 117.935 193.51C117.935 194.95 118.295 196.12 119.015 197.02C119.795 197.92 120.995 198.37 122.615 198.37ZM190.708 192.34C190.948 191.92 191.398 191.71 192.058 191.71C192.898 191.71 193.648 192.01 194.308 192.61C194.968 193.21 195.118 193.87 194.758 194.59C193.078 198.13 191.008 201.07 188.548 203.41C186.088 205.75 182.908 206.92 179.008 206.92H177.928C175.648 210.04 172.948 212.5 169.828 214.3C166.768 216.1 163.588 217 160.288 217C156.148 217 152.788 215.65 150.208 212.95C147.628 210.19 146.338 206.5 146.338 201.88C146.338 197.32 147.418 192.73 149.578 188.11C151.798 183.43 154.798 179.59 158.578 176.59C162.358 173.53 166.528 172 171.088 172C175.048 172 178.228 173.26 180.628 175.78C183.028 178.24 184.228 182.14 184.228 187.48C184.228 190.66 183.778 193.75 182.878 196.75H183.508C186.268 196.75 188.668 195.28 190.708 192.34ZM165.418 198.37C166.858 198.37 168.148 197.95 169.288 197.11C170.488 196.21 171.418 195.1 172.078 193.78C172.738 192.46 173.068 191.17 173.068 189.91C173.068 188.53 172.648 187.39 171.808 186.49C171.028 185.59 169.798 185.14 168.118 185.14C166.018 185.14 164.248 186.01 162.808 187.75C161.428 189.49 160.738 191.41 160.738 193.51C160.738 194.95 161.098 196.12 161.818 197.02C162.598 197.92 163.798 198.37 165.418 198.37ZM199.131 217C195.711 217 193.131 215.83 191.391 213.49C189.711 211.15 188.871 208.06 188.871 204.22C188.871 199.48 189.771 194.62 191.571 189.64C193.371 184.6 196.011 180.4 199.491 177.04C203.031 173.68 207.231 172 212.091 172C214.131 172 215.661 172.27 216.681 172.81C217.701 173.35 218.571 174.1 219.291 175.06C220.011 175.9 220.671 176.32 221.271 176.32C221.631 176.32 221.901 176.05 222.081 175.51C222.321 174.97 222.651 173.98 223.071 172.54C224.031 168.94 225.201 165.46 226.581 162.1C228.141 158.32 229.701 155.74 231.261 154.36C232.821 152.98 234.411 152.29 236.031 152.29C237.051 152.29 237.831 152.62 238.371 153.28C238.971 153.94 239.271 154.87 239.271 156.07C239.271 157.45 238.881 159.01 238.101 160.75L227.931 186.76C226.731 189.22 226.131 191.35 226.131 193.15C226.131 195.67 227.361 196.93 229.821 196.93C232.641 196.93 235.011 195.4 236.931 192.34C237.291 191.8 237.771 191.53 238.371 191.53C239.151 191.53 239.841 191.89 240.441 192.61C241.101 193.33 241.281 193.99 240.981 194.59L238.821 198.91C236.961 202.75 235.311 205.87 233.871 208.27C232.431 210.61 230.691 212.65 228.651 214.39C226.611 216.13 224.271 217 221.631 217C219.171 217 217.221 216.04 215.781 214.12C214.401 212.2 213.711 209.71 213.711 206.65C213.711 206.11 213.771 205.18 213.891 203.86H213.531C211.551 207.76 209.301 210.94 206.781 213.4C204.261 215.8 201.711 217 199.131 217ZM207.321 198.37C208.761 198.37 210.051 197.95 211.191 197.11C212.391 196.21 213.321 195.1 213.981 193.78C214.641 192.46 214.971 191.17 214.971 189.91C214.971 188.53 214.551 187.39 213.711 186.49C212.931 185.59 211.701 185.14 210.021 185.14C207.921 185.14 206.151 186.01 204.711 187.75C203.331 189.49 202.641 191.41 202.641 193.51C202.641 194.95 203.001 196.12 203.721 197.02C204.501 197.92 205.701 198.37 207.321 198.37ZM309.473 150.04C319.673 150.04 327.293 152.02 332.333 155.98C337.373 159.88 339.893 165.55 339.893 172.99C339.893 176.89 338.963 180.7 337.103 184.42C335.243 188.08 332.483 191.08 328.823 193.42C325.223 195.76 320.873 196.93 315.773 196.93C314.153 196.93 312.833 196.78 311.813 196.48C310.793 196.12 309.833 195.67 308.933 195.13C307.973 194.59 307.193 194.32 306.593 194.32C305.693 194.32 304.973 194.74 304.433 195.58L303.983 196.48L304.253 195.85L303.983 196.48C301.223 203.68 297.533 209.53 292.913 214.03C288.293 218.53 283.163 220.78 277.523 220.78C272.603 220.78 268.913 219.34 266.453 216.46C263.993 213.52 262.763 210.01 262.763 205.93C262.763 203.41 263.273 201.01 264.293 198.73C265.313 196.39 266.723 194.53 268.523 193.15C270.323 191.71 272.393 190.99 274.733 190.99C275.093 190.99 275.393 191.11 275.633 191.35C275.933 191.53 276.083 191.77 276.083 192.07C276.083 194.05 276.803 195.67 278.243 196.93C279.683 198.13 281.483 198.73 283.643 198.73C286.403 198.73 289.253 197.44 292.193 194.86C295.133 192.22 297.593 188.38 299.573 183.34L300.563 180.82C300.983 179.68 301.583 178.09 302.363 176.05C303.143 173.95 303.803 172.21 304.343 170.83C305.423 167.95 307.373 166.51 310.193 166.51C313.013 166.51 314.423 167.53 314.423 169.57C314.423 170.11 314.333 170.71 314.153 171.37L313.073 174.52C311.993 177.7 311.363 179.65 311.183 180.37L311.453 179.74C311.093 180.7 310.913 181.54 310.913 182.26C310.913 183.22 311.243 183.91 311.903 184.33C312.563 184.75 313.613 184.96 315.053 184.96C316.793 184.96 318.443 184.48 320.003 183.52C321.623 182.56 322.943 181.18 323.963 179.38C324.983 177.58 325.493 175.45 325.493 172.99C325.493 169.21 324.173 166.45 321.533 164.71C318.893 162.97 314.993 162.1 309.833 162.1C304.193 162.1 299.543 163.09 295.883 165.07C292.223 167.05 290.393 169.99 290.393 173.89C290.393 175.09 290.723 176.11 291.383 176.95C292.043 177.73 292.853 178.12 293.813 178.12C294.053 178.84 294.173 179.41 294.173 179.83C294.173 181.27 293.663 182.77 292.643 184.33C291.623 185.89 290.183 187.21 288.323 188.29C286.523 189.31 284.423 189.82 282.023 189.82C278.483 189.82 275.723 188.62 273.743 186.22C271.763 183.76 270.773 180.79 270.773 177.31C270.773 172.33 272.363 167.77 275.543 163.63C278.723 159.49 283.223 156.19 289.043 153.73C294.923 151.27 301.733 150.04 309.473 150.04ZM343.292 217C337.592 217 334.742 213.91 334.742 207.73C334.742 203.29 335.762 198.16 337.802 192.34L339.782 186.58C342.962 177.34 345.392 170.56 347.072 166.24C348.812 161.86 350.582 158.44 352.382 155.98C354.182 153.52 356.162 152.29 358.322 152.29C360.782 152.29 362.012 153.4 362.012 155.62C362.012 157.06 361.502 158.77 360.482 160.75C355.322 171.13 351.812 179.74 349.952 186.58C349.232 189.04 348.872 191.02 348.872 192.52C348.872 193.9 349.172 194.98 349.772 195.76C350.432 196.54 351.542 196.93 353.102 196.93C355.982 196.93 358.412 195.4 360.392 192.34C360.752 191.8 361.232 191.53 361.832 191.53C362.672 191.53 363.392 191.89 363.992 192.61C364.652 193.33 364.802 193.99 364.442 194.59L362.732 197.92C361.052 201.4 359.402 204.43 357.782 207.01C356.222 209.59 354.182 211.9 351.662 213.94C349.202 215.98 346.412 217 343.292 217ZM405.387 192.34C405.747 191.8 406.227 191.53 406.827 191.53C407.667 191.53 408.387 191.89 408.987 192.61C409.647 193.33 409.797 193.99 409.437 194.59L407.727 197.92C406.047 201.4 404.397 204.43 402.777 207.01C401.217 209.59 399.177 211.9 396.657 213.94C394.197 215.98 391.407 217 388.287 217C383.127 217 380.547 213.73 380.547 207.19C380.547 206.05 380.637 204.82 380.817 203.5C379.017 207.4 376.947 210.61 374.607 213.13C372.267 215.65 369.507 216.91 366.327 216.91C363.807 216.91 361.857 216.04 360.477 214.3C359.097 212.5 358.407 209.8 358.407 206.2C358.407 201.22 359.067 196.6 360.387 192.34C362.547 185.56 364.677 180.49 366.777 177.13C368.937 173.71 371.247 172 373.707 172C375.567 172 376.497 173.2 376.497 175.6C376.497 176.92 376.317 178.21 375.957 179.47C375.657 180.73 375.147 182.44 374.427 184.6C373.707 186.64 373.197 188.23 372.897 189.37C372.597 190.51 372.447 191.65 372.447 192.79C372.447 194.17 372.717 195.19 373.257 195.85C373.797 196.51 374.787 196.84 376.227 196.84C379.827 196.84 382.347 194.74 383.787 190.54L383.877 190.18C385.797 184.06 387.717 179.5 389.637 176.5C391.557 173.5 393.627 172 395.847 172C397.707 172 398.637 173.2 398.637 175.6C398.637 176.74 398.457 177.94 398.097 179.2C397.797 180.4 397.287 182.08 396.567 184.24C395.907 186.1 395.397 187.63 395.037 188.83C394.737 189.97 394.587 191.02 394.587 191.98C394.587 193.6 395.007 194.83 395.847 195.67C396.747 196.51 397.857 196.93 399.177 196.93C400.437 196.93 401.517 196.54 402.417 195.76C403.377 194.98 404.367 193.84 405.387 192.34ZM440.307 192.34C440.667 191.8 441.147 191.53 441.747 191.53C442.527 191.53 443.217 191.89 443.817 192.61C444.477 193.33 444.657 193.99 444.357 194.59C442.617 198.25 440.817 201.55 438.957 204.49C437.097 207.37 434.337 210.16 430.677 212.86C427.077 215.56 422.757 216.91 417.717 216.91C412.677 216.91 408.897 215.53 406.377 212.77C403.917 209.95 402.687 206.47 402.687 202.33C402.687 198.73 403.587 195.4 405.387 192.34L405.747 191.8C406.587 190.66 408.087 188.44 410.247 185.14C412.467 181.78 414.327 179.08 415.827 177.04C417.387 175 419.037 173.29 420.777 171.91C422.577 170.47 424.407 169.75 426.267 169.75C428.907 169.75 430.947 170.38 432.387 171.64C433.827 172.9 434.517 174.31 434.457 175.87C434.457 176.47 434.187 176.98 433.647 177.4C433.167 177.82 432.447 178.3 431.487 178.84C430.347 179.44 429.477 180.01 428.877 180.55C428.277 181.09 427.977 181.78 427.977 182.62C427.977 183.16 428.607 184.69 429.867 187.21C431.967 191.23 433.317 194.53 433.917 197.11C435.177 197.05 436.287 196.63 437.247 195.85C438.267 195.01 439.287 193.84 440.307 192.34ZM414.477 198.37C416.397 198.37 417.897 197.77 418.977 196.57C420.117 195.31 420.687 193.72 420.687 191.8C420.687 189.76 420.027 187.48 418.707 184.96C418.467 184.36 418.137 184.06 417.717 184.06C417.357 184.06 416.967 184.36 416.547 184.96C414.507 187.96 412.137 191.17 409.437 194.59C409.437 195.67 409.887 196.57 410.787 197.29C411.747 198.01 412.977 198.37 414.477 198.37Z"/>
</mask>
<path d="M113.348 146.17C114.668 146.17 115.568 146.47 116.048 147.07C116.588 147.67 116.858 148.6 116.858 149.86C116.858 152.2 116.288 154.39 115.148 156.43C114.068 158.47 112.448 160.12 110.288 161.38C108.128 162.58 105.578 163.18 102.638 163.18C100.838 163.18 99.2779 163 97.9579 162.64C96.6379 162.28 94.9879 161.74 93.0079 161.02C90.9079 160.18 89.0179 159.55 87.3379 159.13C85.6579 158.71 83.6179 158.5 81.2179 158.5C76.8379 158.5 73.2079 159.19 70.3279 160.57C67.4479 161.95 66.0079 163.99 66.0079 166.69C66.0079 167.89 66.3379 168.91 66.9979 169.75C67.6579 170.53 68.4679 170.92 69.4279 170.92C69.6679 171.64 69.7879 172.21 69.7879 172.63C69.7879 174.07 69.2779 175.57 68.2579 177.13C67.2379 178.69 65.7979 180.01 63.9379 181.09C62.1379 182.11 60.0379 182.62 57.6379 182.62C54.0979 182.62 51.3379 181.42 49.3579 179.02C47.3779 176.56 46.3879 173.59 46.3879 170.11C46.3879 165.79 47.8279 161.83 50.7079 158.23C53.5879 154.63 57.7879 151.78 63.3079 149.68C68.8879 147.52 75.4879 146.44 83.1079 146.44C86.2279 146.44 89.7679 146.56 93.7279 146.8C97.0879 147.04 99.6679 147.16 101.468 147.16C104.648 147.16 107.618 146.92 110.378 146.44C110.858 146.38 111.338 146.32 111.818 146.26C112.358 146.2 112.868 146.17 113.348 146.17ZM98.6779 179.74C100.358 179.74 101.498 180.04 102.098 180.64C102.758 181.18 103.088 181.99 103.088 183.07C103.088 184.15 102.758 185.26 102.098 186.4C101.438 187.54 100.418 188.5 99.0379 189.28C97.6579 190.06 95.9779 190.45 93.9979 190.45C91.4179 190.45 88.8379 190.3 86.2579 190C85.4179 192.46 84.5179 194.77 83.5579 196.93C80.1979 204.97 76.1779 210.97 71.4979 214.93C66.8179 218.83 61.5979 220.78 55.8379 220.78C51.8779 220.78 48.5779 220.06 45.9379 218.62C43.3579 217.18 41.4679 215.32 40.2679 213.04C39.0079 210.76 38.3779 208.3 38.3779 205.66C38.3779 203.2 38.8879 200.83 39.9079 198.55C40.9279 196.27 42.3379 194.44 44.1379 193.06C45.9379 191.68 48.0079 190.99 50.3479 190.99C50.7079 190.99 51.0079 191.11 51.2479 191.35C51.5479 191.53 51.6979 191.77 51.6979 192.07C51.6979 194.05 52.4779 195.67 54.0379 196.93C55.5979 198.13 57.6679 198.73 60.2479 198.73C62.8279 198.73 65.4979 197.86 68.2579 196.12C71.0179 194.38 73.4479 191.74 75.5479 188.2C74.3479 188.08 73.5079 188.02 73.0279 188.02C72.0079 188.02 71.2279 187.72 70.6879 187.12C70.2079 186.52 69.9679 185.71 69.9679 184.69C69.9679 183.31 70.4179 182.2 71.3179 181.36C72.2179 180.52 73.5379 180.1 75.2779 180.1H79.0579L80.2279 176.95C80.5879 176.05 81.0979 174.64 81.7579 172.72C82.4779 170.8 83.1079 169.18 83.6479 167.86C84.7279 164.98 86.6779 163.54 89.4979 163.54C92.4979 163.54 93.9979 164.56 93.9979 166.6C93.9979 166.96 93.8779 167.56 93.6379 168.4C92.6179 171.76 91.3579 175.6 89.8579 179.92L98.6779 179.74ZM147.905 192.34C148.145 191.92 148.595 191.71 149.255 191.71C150.095 191.71 150.845 192.01 151.505 192.61C152.165 193.21 152.315 193.87 151.955 194.59C150.275 198.13 148.205 201.07 145.745 203.41C143.285 205.75 140.105 206.92 136.205 206.92H135.125C132.845 210.04 130.145 212.5 127.025 214.3C123.965 216.1 120.785 217 117.485 217C113.345 217 109.985 215.65 107.405 212.95C104.825 210.19 103.535 206.5 103.535 201.88C103.535 197.32 104.615 192.73 106.775 188.11C108.995 183.43 111.995 179.59 115.775 176.59C119.555 173.53 123.725 172 128.285 172C132.245 172 135.425 173.26 137.825 175.78C140.225 178.24 141.425 182.14 141.425 187.48C141.425 190.66 140.975 193.75 140.075 196.75H140.705C143.465 196.75 145.865 195.28 147.905 192.34ZM122.615 198.37C124.055 198.37 125.345 197.95 126.485 197.11C127.685 196.21 128.615 195.1 129.275 193.78C129.935 192.46 130.265 191.17 130.265 189.91C130.265 188.53 129.845 187.39 129.005 186.49C128.225 185.59 126.995 185.14 125.315 185.14C123.215 185.14 121.445 186.01 120.005 187.75C118.625 189.49 117.935 191.41 117.935 193.51C117.935 194.95 118.295 196.12 119.015 197.02C119.795 197.92 120.995 198.37 122.615 198.37ZM190.708 192.34C190.948 191.92 191.398 191.71 192.058 191.71C192.898 191.71 193.648 192.01 194.308 192.61C194.968 193.21 195.118 193.87 194.758 194.59C193.078 198.13 191.008 201.07 188.548 203.41C186.088 205.75 182.908 206.92 179.008 206.92H177.928C175.648 210.04 172.948 212.5 169.828 214.3C166.768 216.1 163.588 217 160.288 217C156.148 217 152.788 215.65 150.208 212.95C147.628 210.19 146.338 206.5 146.338 201.88C146.338 197.32 147.418 192.73 149.578 188.11C151.798 183.43 154.798 179.59 158.578 176.59C162.358 173.53 166.528 172 171.088 172C175.048 172 178.228 173.26 180.628 175.78C183.028 178.24 184.228 182.14 184.228 187.48C184.228 190.66 183.778 193.75 182.878 196.75H183.508C186.268 196.75 188.668 195.28 190.708 192.34ZM165.418 198.37C166.858 198.37 168.148 197.95 169.288 197.11C170.488 196.21 171.418 195.1 172.078 193.78C172.738 192.46 173.068 191.17 173.068 189.91C173.068 188.53 172.648 187.39 171.808 186.49C171.028 185.59 169.798 185.14 168.118 185.14C166.018 185.14 164.248 186.01 162.808 187.75C161.428 189.49 160.738 191.41 160.738 193.51C160.738 194.95 161.098 196.12 161.818 197.02C162.598 197.92 163.798 198.37 165.418 198.37ZM199.131 217C195.711 217 193.131 215.83 191.391 213.49C189.711 211.15 188.871 208.06 188.871 204.22C188.871 199.48 189.771 194.62 191.571 189.64C193.371 184.6 196.011 180.4 199.491 177.04C203.031 173.68 207.231 172 212.091 172C214.131 172 215.661 172.27 216.681 172.81C217.701 173.35 218.571 174.1 219.291 175.06C220.011 175.9 220.671 176.32 221.271 176.32C221.631 176.32 221.901 176.05 222.081 175.51C222.321 174.97 222.651 173.98 223.071 172.54C224.031 168.94 225.201 165.46 226.581 162.1C228.141 158.32 229.701 155.74 231.261 154.36C232.821 152.98 234.411 152.29 236.031 152.29C237.051 152.29 237.831 152.62 238.371 153.28C238.971 153.94 239.271 154.87 239.271 156.07C239.271 157.45 238.881 159.01 238.101 160.75L227.931 186.76C226.731 189.22 226.131 191.35 226.131 193.15C226.131 195.67 227.361 196.93 229.821 196.93C232.641 196.93 235.011 195.4 236.931 192.34C237.291 191.8 237.771 191.53 238.371 191.53C239.151 191.53 239.841 191.89 240.441 192.61C241.101 193.33 241.281 193.99 240.981 194.59L238.821 198.91C236.961 202.75 235.311 205.87 233.871 208.27C232.431 210.61 230.691 212.65 228.651 214.39C226.611 216.13 224.271 217 221.631 217C219.171 217 217.221 216.04 215.781 214.12C214.401 212.2 213.711 209.71 213.711 206.65C213.711 206.11 213.771 205.18 213.891 203.86H213.531C211.551 207.76 209.301 210.94 206.781 213.4C204.261 215.8 201.711 217 199.131 217ZM207.321 198.37C208.761 198.37 210.051 197.95 211.191 197.11C212.391 196.21 213.321 195.1 213.981 193.78C214.641 192.46 214.971 191.17 214.971 189.91C214.971 188.53 214.551 187.39 213.711 186.49C212.931 185.59 211.701 185.14 210.021 185.14C207.921 185.14 206.151 186.01 204.711 187.75C203.331 189.49 202.641 191.41 202.641 193.51C202.641 194.95 203.001 196.12 203.721 197.02C204.501 197.92 205.701 198.37 207.321 198.37ZM309.473 150.04C319.673 150.04 327.293 152.02 332.333 155.98C337.373 159.88 339.893 165.55 339.893 172.99C339.893 176.89 338.963 180.7 337.103 184.42C335.243 188.08 332.483 191.08 328.823 193.42C325.223 195.76 320.873 196.93 315.773 196.93C314.153 196.93 312.833 196.78 311.813 196.48C310.793 196.12 309.833 195.67 308.933 195.13C307.973 194.59 307.193 194.32 306.593 194.32C305.693 194.32 304.973 194.74 304.433 195.58L303.983 196.48L304.253 195.85L303.983 196.48C301.223 203.68 297.533 209.53 292.913 214.03C288.293 218.53 283.163 220.78 277.523 220.78C272.603 220.78 268.913 219.34 266.453 216.46C263.993 213.52 262.763 210.01 262.763 205.93C262.763 203.41 263.273 201.01 264.293 198.73C265.313 196.39 266.723 194.53 268.523 193.15C270.323 191.71 272.393 190.99 274.733 190.99C275.093 190.99 275.393 191.11 275.633 191.35C275.933 191.53 276.083 191.77 276.083 192.07C276.083 194.05 276.803 195.67 278.243 196.93C279.683 198.13 281.483 198.73 283.643 198.73C286.403 198.73 289.253 197.44 292.193 194.86C295.133 192.22 297.593 188.38 299.573 183.34L300.563 180.82C300.983 179.68 301.583 178.09 302.363 176.05C303.143 173.95 303.803 172.21 304.343 170.83C305.423 167.95 307.373 166.51 310.193 166.51C313.013 166.51 314.423 167.53 314.423 169.57C314.423 170.11 314.333 170.71 314.153 171.37L313.073 174.52C311.993 177.7 311.363 179.65 311.183 180.37L311.453 179.74C311.093 180.7 310.913 181.54 310.913 182.26C310.913 183.22 311.243 183.91 311.903 184.33C312.563 184.75 313.613 184.96 315.053 184.96C316.793 184.96 318.443 184.48 320.003 183.52C321.623 182.56 322.943 181.18 323.963 179.38C324.983 177.58 325.493 175.45 325.493 172.99C325.493 169.21 324.173 166.45 321.533 164.71C318.893 162.97 314.993 162.1 309.833 162.1C304.193 162.1 299.543 163.09 295.883 165.07C292.223 167.05 290.393 169.99 290.393 173.89C290.393 175.09 290.723 176.11 291.383 176.95C292.043 177.73 292.853 178.12 293.813 178.12C294.053 178.84 294.173 179.41 294.173 179.83C294.173 181.27 293.663 182.77 292.643 184.33C291.623 185.89 290.183 187.21 288.323 188.29C286.523 189.31 284.423 189.82 282.023 189.82C278.483 189.82 275.723 188.62 273.743 186.22C271.763 183.76 270.773 180.79 270.773 177.31C270.773 172.33 272.363 167.77 275.543 163.63C278.723 159.49 283.223 156.19 289.043 153.73C294.923 151.27 301.733 150.04 309.473 150.04ZM343.292 217C337.592 217 334.742 213.91 334.742 207.73C334.742 203.29 335.762 198.16 337.802 192.34L339.782 186.58C342.962 177.34 345.392 170.56 347.072 166.24C348.812 161.86 350.582 158.44 352.382 155.98C354.182 153.52 356.162 152.29 358.322 152.29C360.782 152.29 362.012 153.4 362.012 155.62C362.012 157.06 361.502 158.77 360.482 160.75C355.322 171.13 351.812 179.74 349.952 186.58C349.232 189.04 348.872 191.02 348.872 192.52C348.872 193.9 349.172 194.98 349.772 195.76C350.432 196.54 351.542 196.93 353.102 196.93C355.982 196.93 358.412 195.4 360.392 192.34C360.752 191.8 361.232 191.53 361.832 191.53C362.672 191.53 363.392 191.89 363.992 192.61C364.652 193.33 364.802 193.99 364.442 194.59L362.732 197.92C361.052 201.4 359.402 204.43 357.782 207.01C356.222 209.59 354.182 211.9 351.662 213.94C349.202 215.98 346.412 217 343.292 217ZM405.387 192.34C405.747 191.8 406.227 191.53 406.827 191.53C407.667 191.53 408.387 191.89 408.987 192.61C409.647 193.33 409.797 193.99 409.437 194.59L407.727 197.92C406.047 201.4 404.397 204.43 402.777 207.01C401.217 209.59 399.177 211.9 396.657 213.94C394.197 215.98 391.407 217 388.287 217C383.127 217 380.547 213.73 380.547 207.19C380.547 206.05 380.637 204.82 380.817 203.5C379.017 207.4 376.947 210.61 374.607 213.13C372.267 215.65 369.507 216.91 366.327 216.91C363.807 216.91 361.857 216.04 360.477 214.3C359.097 212.5 358.407 209.8 358.407 206.2C358.407 201.22 359.067 196.6 360.387 192.34C362.547 185.56 364.677 180.49 366.777 177.13C368.937 173.71 371.247 172 373.707 172C375.567 172 376.497 173.2 376.497 175.6C376.497 176.92 376.317 178.21 375.957 179.47C375.657 180.73 375.147 182.44 374.427 184.6C373.707 186.64 373.197 188.23 372.897 189.37C372.597 190.51 372.447 191.65 372.447 192.79C372.447 194.17 372.717 195.19 373.257 195.85C373.797 196.51 374.787 196.84 376.227 196.84C379.827 196.84 382.347 194.74 383.787 190.54L383.877 190.18C385.797 184.06 387.717 179.5 389.637 176.5C391.557 173.5 393.627 172 395.847 172C397.707 172 398.637 173.2 398.637 175.6C398.637 176.74 398.457 177.94 398.097 179.2C397.797 180.4 397.287 182.08 396.567 184.24C395.907 186.1 395.397 187.63 395.037 188.83C394.737 189.97 394.587 191.02 394.587 191.98C394.587 193.6 395.007 194.83 395.847 195.67C396.747 196.51 397.857 196.93 399.177 196.93C400.437 196.93 401.517 196.54 402.417 195.76C403.377 194.98 404.367 193.84 405.387 192.34ZM440.307 192.34C440.667 191.8 441.147 191.53 441.747 191.53C442.527 191.53 443.217 191.89 443.817 192.61C444.477 193.33 444.657 193.99 444.357 194.59C442.617 198.25 440.817 201.55 438.957 204.49C437.097 207.37 434.337 210.16 430.677 212.86C427.077 215.56 422.757 216.91 417.717 216.91C412.677 216.91 408.897 215.53 406.377 212.77C403.917 209.95 402.687 206.47 402.687 202.33C402.687 198.73 403.587 195.4 405.387 192.34L405.747 191.8C406.587 190.66 408.087 188.44 410.247 185.14C412.467 181.78 414.327 179.08 415.827 177.04C417.387 175 419.037 173.29 420.777 171.91C422.577 170.47 424.407 169.75 426.267 169.75C428.907 169.75 430.947 170.38 432.387 171.64C433.827 172.9 434.517 174.31 434.457 175.87C434.457 176.47 434.187 176.98 433.647 177.4C433.167 177.82 432.447 178.3 431.487 178.84C430.347 179.44 429.477 180.01 428.877 180.55C428.277 181.09 427.977 181.78 427.977 182.62C427.977 183.16 428.607 184.69 429.867 187.21C431.967 191.23 433.317 194.53 433.917 197.11C435.177 197.05 436.287 196.63 437.247 195.85C438.267 195.01 439.287 193.84 440.307 192.34ZM414.477 198.37C416.397 198.37 417.897 197.77 418.977 196.57C420.117 195.31 420.687 193.72 420.687 191.8C420.687 189.76 420.027 187.48 418.707 184.96C418.467 184.36 418.137 184.06 417.717 184.06C417.357 184.06 416.967 184.36 416.547 184.96C414.507 187.96 412.137 191.17 409.437 194.59C409.437 195.67 409.887 196.57 410.787 197.29C411.747 198.01 412.977 198.37 414.477 198.37Z" fill="white"/>
<path d="M116.048 147.07L113.705 148.944L113.76 149.012L113.818 149.077L116.048 147.07ZM115.148 156.43L112.529 154.967L112.512 154.996L112.497 155.026L115.148 156.43ZM110.288 161.38L111.745 164.002L111.772 163.987L111.8 163.971L110.288 161.38ZM97.9579 162.64L98.7473 159.746L98.7473 159.746L97.9579 162.64ZM93.0079 161.02L91.8938 163.805L91.938 163.823L91.9827 163.839L93.0079 161.02ZM87.3379 159.13L86.6103 162.04L86.6103 162.04L87.3379 159.13ZM66.9979 169.75L64.639 171.603L64.6726 171.646L64.7078 171.688L66.9979 169.75ZM69.4279 170.92L72.274 169.971L71.5902 167.92H69.4279V170.92ZM68.2579 177.13L65.747 175.488L65.747 175.488L68.2579 177.13ZM63.9379 181.09L65.417 183.7L65.4307 183.692L65.4443 183.684L63.9379 181.09ZM49.3579 179.02L47.0209 180.901L47.0323 180.915L47.0438 180.929L49.3579 179.02ZM50.7079 158.23L53.0505 160.104L53.0505 160.104L50.7079 158.23ZM63.3079 149.68L64.3746 152.484L64.3828 152.481L64.3909 152.478L63.3079 149.68ZM93.7279 146.8L93.9417 143.808L93.9255 143.806L93.9094 143.805L93.7279 146.8ZM110.378 146.44L110.006 143.463L109.935 143.472L109.864 143.484L110.378 146.44ZM111.818 146.26L111.487 143.278L111.466 143.281L111.446 143.283L111.818 146.26ZM98.6779 179.74V176.74H98.6473L98.6167 176.741L98.6779 179.74ZM102.098 180.64L99.9766 182.761L100.082 182.867L100.198 182.962L102.098 180.64ZM102.098 186.4L104.694 187.903L104.694 187.903L102.098 186.4ZM99.0379 189.28L97.5618 186.668L97.5618 186.668L99.0379 189.28ZM86.2579 190L86.6044 187.02L84.2008 186.741L83.4189 189.031L86.2579 190ZM83.5579 196.93L80.8165 195.712L80.8029 195.742L80.7899 195.773L83.5579 196.93ZM71.4979 214.93L73.4185 217.235L73.4271 217.227L73.4358 217.22L71.4979 214.93ZM45.9379 218.62L44.4758 221.24L44.4886 221.247L44.5014 221.254L45.9379 218.62ZM40.2679 213.04L42.9227 211.643L42.9084 211.616L42.8937 211.589L40.2679 213.04ZM39.9079 198.55L42.6464 199.775L42.6464 199.775L39.9079 198.55ZM44.1379 193.06L45.9632 195.441L45.9632 195.441L44.1379 193.06ZM51.2479 191.35L49.1266 193.471L49.3878 193.732L49.7044 193.922L51.2479 191.35ZM54.0379 196.93L52.1529 199.264L52.1806 199.286L52.2088 199.308L54.0379 196.93ZM68.2579 196.12L66.658 193.582L66.658 193.582L68.2579 196.12ZM75.5479 188.2L78.1281 189.731L80.5291 185.683L75.8464 185.215L75.5479 188.2ZM70.6879 187.12L68.3453 188.994L68.3998 189.062L68.458 189.127L70.6879 187.12ZM71.3179 181.36L69.271 179.167L69.271 179.167L71.3179 181.36ZM79.0579 180.1V183.1H81.1439L81.8702 181.145L79.0579 180.1ZM80.2279 176.95L77.4425 175.836L77.4286 175.87L77.4157 175.905L80.2279 176.95ZM81.7579 172.72L78.9489 171.667L78.9344 171.706L78.9209 171.745L81.7579 172.72ZM83.6479 167.86L86.4246 168.996L86.4414 168.955L86.4569 168.913L83.6479 167.86ZM93.6379 168.4L96.5086 169.271L96.5157 169.248L96.5225 169.224L93.6379 168.4ZM89.8579 179.92L87.0239 178.936L85.6102 183.007L89.9191 182.919L89.8579 179.92ZM113.348 149.17C113.567 149.17 113.734 149.183 113.857 149.199C113.981 149.216 114.046 149.235 114.064 149.241C114.082 149.247 114.042 149.236 113.97 149.189C113.895 149.14 113.798 149.06 113.705 148.944L118.391 145.196C117.038 143.505 114.947 143.17 113.348 143.17V149.17ZM113.818 149.077C113.731 148.98 113.741 148.938 113.774 149.054C113.811 149.18 113.858 149.433 113.858 149.86H119.858C119.858 148.257 119.527 146.452 118.278 145.063L113.818 149.077ZM113.858 149.86C113.858 151.688 113.419 153.374 112.529 154.967L117.767 157.893C119.157 155.406 119.858 152.712 119.858 149.86H113.858ZM112.497 155.026C111.7 156.531 110.495 157.786 108.776 158.789L111.8 163.971C114.401 162.454 116.436 160.409 117.799 157.834L112.497 155.026ZM108.831 158.758C107.194 159.667 105.165 160.18 102.638 160.18V166.18C105.991 166.18 109.062 165.493 111.745 164.002L108.831 158.758ZM102.638 160.18C101.026 160.18 99.7438 160.017 98.7473 159.746L97.1686 165.534C98.812 165.983 100.65 166.18 102.638 166.18V160.18ZM98.7473 159.746C97.5372 159.416 95.9721 158.906 94.0332 158.201L91.9827 163.839C94.0037 164.574 95.7387 165.144 97.1686 165.534L98.7473 159.746ZM94.1221 158.235C91.932 157.359 89.9098 156.681 88.0655 156.22L86.6103 162.04C88.1261 162.419 89.8839 163.001 91.8938 163.805L94.1221 158.235ZM88.0655 156.22C86.076 155.722 83.7765 155.5 81.2179 155.5V161.5C83.4594 161.5 85.2398 161.698 86.6103 162.04L88.0655 156.22ZM81.2179 155.5C76.5466 155.5 72.4375 156.233 69.0316 157.865L71.6243 163.275C73.9784 162.147 77.1293 161.5 81.2179 161.5V155.5ZM69.0316 157.865C67.2557 158.715 65.7236 159.866 64.637 161.405C63.5303 162.973 63.0079 164.773 63.0079 166.69H69.0079C69.0079 165.907 69.2055 165.337 69.5388 164.865C69.8923 164.364 70.5201 163.805 71.6243 163.275L69.0316 157.865ZM63.0079 166.69C63.0079 168.475 63.5127 170.17 64.639 171.603L69.3569 167.897C69.1632 167.65 69.0079 167.305 69.0079 166.69H63.0079ZM64.7078 171.688C65.896 173.092 67.5227 173.92 69.4279 173.92V167.92C69.3922 167.92 69.3787 167.917 69.3816 167.917C69.3852 167.918 69.3936 167.92 69.4019 167.924C69.4098 167.928 69.4058 167.928 69.3893 167.915C69.372 167.901 69.3372 167.87 69.2881 167.812L64.7078 171.688ZM66.5819 171.869C66.6759 172.151 66.7316 172.36 66.7623 172.506C66.7946 172.659 66.7879 172.69 66.7879 172.63H72.7879C72.7879 171.726 72.5476 170.792 72.274 169.971L66.5819 171.869ZM66.7879 172.63C66.7879 173.338 66.5407 174.274 65.747 175.488L70.7688 178.772C72.0151 176.866 72.7879 174.802 72.7879 172.63H66.7879ZM65.747 175.488C65.0198 176.601 63.9494 177.614 62.4315 178.496L65.4443 183.684C67.6465 182.406 69.4561 180.779 70.7688 178.772L65.747 175.488ZM62.4589 178.48C61.1776 179.206 59.6033 179.62 57.6379 179.62V185.62C60.4726 185.62 63.0982 185.014 65.417 183.7L62.4589 178.48ZM57.6379 179.62C54.8548 179.62 52.9995 178.72 51.672 177.111L47.0438 180.929C49.6764 184.12 53.341 185.62 57.6379 185.62V179.62ZM51.695 177.139C50.1884 175.267 49.3879 172.98 49.3879 170.11H43.3879C43.3879 174.2 44.5675 177.853 47.0209 180.901L51.695 177.139ZM49.3879 170.11C49.3879 166.519 50.5654 163.21 53.0505 160.104L48.3653 156.356C45.0905 160.45 43.3879 165.061 43.3879 170.11H49.3879ZM53.0505 160.104C55.5143 157.024 59.2172 154.446 64.3746 152.484L62.2412 146.876C56.3587 149.114 51.6616 152.236 48.3653 156.356L53.0505 160.104ZM64.3909 152.478C69.5454 150.482 75.7614 149.44 83.1079 149.44V143.44C75.2145 143.44 68.2305 144.558 62.2249 146.882L64.3909 152.478ZM83.1079 149.44C86.1538 149.44 89.6315 149.557 93.5464 149.795L93.9094 143.805C89.9043 143.563 86.3021 143.44 83.1079 143.44V149.44ZM93.5142 149.792C96.8956 150.034 99.5599 150.16 101.468 150.16V144.16C99.776 144.16 97.2803 144.046 93.9417 143.808L93.5142 149.792ZM101.468 150.16C104.798 150.16 107.941 149.909 110.892 149.396L109.864 143.484C107.295 143.931 104.498 144.16 101.468 144.16V150.16ZM110.75 149.417C111.23 149.357 111.71 149.297 112.19 149.237L111.446 143.283C110.966 143.343 110.486 143.403 110.006 143.463L110.75 149.417ZM112.149 149.242C112.593 149.192 112.992 149.17 113.348 149.17V143.17C112.744 143.17 112.123 143.208 111.487 143.278L112.149 149.242ZM98.6779 182.74C99.3597 182.74 99.7893 182.803 100.029 182.866C100.276 182.931 100.171 182.955 99.9766 182.761L104.219 178.519C102.711 177.011 100.474 176.74 98.6779 176.74V182.74ZM100.198 182.962C100.171 182.94 100.14 182.909 100.112 182.87C100.084 182.831 100.068 182.8 100.062 182.784C100.051 182.756 100.088 182.83 100.088 183.07H106.088C106.088 181.351 105.533 179.575 103.998 178.318L100.198 182.962ZM100.088 183.07C100.088 183.518 99.9551 184.114 99.5017 184.897L104.694 187.903C105.561 186.406 106.088 184.782 106.088 183.07H100.088ZM99.5017 184.897C99.1593 185.488 98.5711 186.098 97.5618 186.668L100.514 191.892C102.265 190.902 103.717 189.592 104.694 187.903L99.5017 184.897ZM97.5618 186.668C96.7312 187.138 95.5877 187.45 93.9979 187.45V193.45C96.3681 193.45 98.5847 192.982 100.514 191.892L97.5618 186.668ZM93.9979 187.45C91.5345 187.45 89.0702 187.307 86.6044 187.02L85.9114 192.98C88.6057 193.293 91.3014 193.45 93.9979 193.45V187.45ZM83.4189 189.031C82.6049 191.414 81.7369 193.641 80.8165 195.712L86.2994 198.148C87.299 195.899 88.231 193.506 89.097 190.969L83.4189 189.031ZM80.7899 195.773C77.5408 203.548 73.7575 209.088 69.5601 212.64L73.4358 217.22C78.5984 212.852 82.855 206.392 86.3259 198.087L80.7899 195.773ZM69.5774 212.625C65.4029 216.104 60.8536 217.78 55.8379 217.78V223.78C62.3423 223.78 68.2329 221.556 73.4185 217.235L69.5774 212.625ZM55.8379 217.78C52.2262 217.78 49.4562 217.122 47.3745 215.986L44.5014 221.254C47.6997 222.998 51.5297 223.78 55.8379 223.78V217.78ZM47.4 216C45.2511 214.801 43.8139 213.336 42.9227 211.643L37.6132 214.437C39.122 217.304 41.4647 219.559 44.4758 221.24L47.4 216ZM42.8937 211.589C41.8826 209.759 41.3779 207.8 41.3779 205.66H35.3779C35.3779 208.8 36.1333 211.761 37.6422 214.491L42.8937 211.589ZM41.3779 205.66C41.3779 203.629 41.7961 201.676 42.6464 199.775L37.1695 197.325C35.9798 199.984 35.3779 202.771 35.3779 205.66H41.3779ZM42.6464 199.775C43.4838 197.903 44.5979 196.488 45.9632 195.441L42.3126 190.679C40.0779 192.392 38.372 194.637 37.1695 197.325L42.6464 199.775ZM45.9632 195.441C47.2219 194.476 48.6454 193.99 50.3479 193.99V187.99C47.3705 187.99 44.654 188.884 42.3126 190.679L45.9632 195.441ZM50.3479 193.99C50.1898 193.99 49.9714 193.962 49.7288 193.865C49.4826 193.767 49.2791 193.624 49.1266 193.471L53.3692 189.229C52.5299 188.389 51.45 187.99 50.3479 187.99V193.99ZM49.7044 193.922C49.5423 193.825 49.27 193.621 49.0414 193.255C48.8003 192.869 48.6979 192.447 48.6979 192.07H54.6979C54.6979 190.524 53.8174 189.393 52.7914 188.778L49.7044 193.922ZM48.6979 192.07C48.6979 194.97 49.8983 197.443 52.1529 199.264L55.9229 194.596C55.0576 193.897 54.6979 193.13 54.6979 192.07H48.6979ZM52.2088 199.308C54.436 201.021 57.2124 201.73 60.2479 201.73V195.73C58.1235 195.73 56.7599 195.239 55.8671 194.552L52.2088 199.308ZM60.2479 201.73C63.5264 201.73 66.7446 200.62 69.8578 198.658L66.658 193.582C64.2513 195.1 62.1294 195.73 60.2479 195.73V201.73ZM69.8578 198.658C73.1111 196.607 75.8476 193.575 78.1281 189.731L72.9678 186.669C71.0483 189.905 68.9248 192.153 66.658 193.582L69.8578 198.658ZM75.8464 185.215C74.6512 185.095 73.6751 185.02 73.0279 185.02V191.02C73.3408 191.02 74.0446 191.065 75.2494 191.185L75.8464 185.215ZM73.0279 185.02C72.8074 185.02 72.7347 184.987 72.7549 184.995C72.766 184.999 72.793 185.011 72.8279 185.035C72.8632 185.059 72.8941 185.087 72.9178 185.113L68.458 189.127C69.7099 190.518 71.3975 191.02 73.0279 191.02V185.02ZM73.0305 185.246C73.0974 185.33 72.9679 185.252 72.9679 184.69H66.9679C66.9679 186.168 67.3184 187.71 68.3453 188.994L73.0305 185.246ZM72.9679 184.69C72.9679 184.03 73.1495 183.754 73.3649 183.553L69.271 179.167C67.6863 180.646 66.9679 182.59 66.9679 184.69H72.9679ZM73.3649 183.553C73.5158 183.412 73.9834 183.1 75.2779 183.1V177.1C73.0924 177.1 70.9201 177.628 69.271 179.167L73.3649 183.553ZM75.2779 183.1H79.0579V177.1H75.2779V183.1ZM81.8702 181.145L83.0402 177.995L77.4157 175.905L76.2457 179.055L81.8702 181.145ZM83.0134 178.064C83.4024 177.092 83.9323 175.623 84.595 173.695L78.9209 171.745C78.2636 173.657 77.7735 175.008 77.4425 175.836L83.0134 178.064ZM84.5669 173.773C85.2806 171.87 85.8994 170.28 86.4246 168.996L80.8713 166.724C80.3164 168.08 79.6753 169.73 78.9489 171.667L84.5669 173.773ZM86.4569 168.913C86.8477 167.871 87.3049 167.327 87.7026 167.033C88.0805 166.754 88.6208 166.54 89.4979 166.54V160.54C87.555 160.54 85.7103 161.046 84.1383 162.207C82.586 163.353 81.5282 164.969 80.8389 166.807L86.4569 168.913ZM89.4979 166.54C90.0874 166.54 90.5122 166.591 90.8035 166.657C91.0952 166.723 91.1931 166.791 91.186 166.786C91.1592 166.768 91.0795 166.697 91.0229 166.582C90.973 166.48 90.9979 166.458 90.9979 166.6H96.9979C96.9979 164.731 96.244 162.969 94.5599 161.824C93.0828 160.82 91.2442 160.54 89.4979 160.54V166.54ZM90.9979 166.6C90.9979 166.493 91.0103 166.511 90.9662 166.732C90.9272 166.927 90.8597 167.204 90.7534 167.576L96.5225 169.224C96.7611 168.389 96.9979 167.425 96.9979 166.6H90.9979ZM90.7673 167.529C89.7616 170.842 88.5146 174.643 87.0239 178.936L92.692 180.904C94.2013 176.557 95.4743 172.678 96.5086 169.271L90.7673 167.529ZM89.9191 182.919L98.7391 182.739L98.6167 176.741L89.7967 176.921L89.9191 182.919ZM147.905 192.34L150.37 194.05L150.445 193.942L150.51 193.828L147.905 192.34ZM151.505 192.61L153.523 190.39L153.523 190.39L151.505 192.61ZM151.955 194.59L149.272 193.248L149.258 193.276L149.245 193.304L151.955 194.59ZM135.125 206.92V203.92H133.602L132.703 205.15L135.125 206.92ZM127.025 214.3L125.526 211.701L125.515 211.708L125.504 211.714L127.025 214.3ZM107.405 212.95L105.214 214.999L105.225 215.011L105.236 215.023L107.405 212.95ZM106.775 188.11L104.065 186.824L104.061 186.832L104.057 186.839L106.775 188.11ZM115.775 176.59L117.64 178.94L117.651 178.931L117.663 178.922L115.775 176.59ZM137.825 175.78L135.653 177.849L135.665 177.862L135.678 177.875L137.825 175.78ZM140.075 196.75L137.202 195.888L136.043 199.75H140.075V196.75ZM126.485 197.11L128.265 199.525L128.275 199.518L128.285 199.51L126.485 197.11ZM129.275 193.78L131.958 195.122L131.958 195.122L129.275 193.78ZM129.005 186.49L126.738 188.455L126.774 188.497L126.812 188.537L129.005 186.49ZM120.005 187.75L117.694 185.837L117.674 185.861L117.655 185.886L120.005 187.75ZM119.015 197.02L116.673 198.894L116.709 198.94L116.748 198.985L119.015 197.02ZM150.51 193.828C150.314 194.172 150.012 194.436 149.691 194.586C149.411 194.717 149.226 194.71 149.255 194.71V188.71C147.962 188.71 146.263 189.167 145.3 190.852L150.51 193.828ZM149.255 194.71C149.309 194.71 149.327 194.718 149.333 194.72C149.343 194.724 149.395 194.746 149.487 194.83L153.523 190.39C152.348 189.322 150.89 188.71 149.255 188.71V194.71ZM149.487 194.83C149.505 194.847 149.286 194.653 149.187 194.22C149.081 193.751 149.203 193.386 149.272 193.248L154.638 195.932C155.067 195.074 155.295 194.019 155.038 192.89C154.79 191.797 154.165 190.973 153.523 190.39L149.487 194.83ZM149.245 193.304C147.699 196.562 145.833 199.186 143.677 201.236L147.813 205.584C150.577 202.954 152.851 199.698 154.665 195.876L149.245 193.304ZM143.677 201.236C141.858 202.967 139.459 203.92 136.205 203.92V209.92C140.752 209.92 144.712 208.533 147.813 205.584L143.677 201.236ZM136.205 203.92H135.125V209.92H136.205V203.92ZM132.703 205.15C130.651 207.957 128.258 210.125 125.526 211.701L128.524 216.899C132.032 214.875 135.039 212.123 137.547 208.69L132.703 205.15ZM125.504 211.714C122.869 213.264 120.21 214 117.485 214V220C121.36 220 125.061 218.936 128.546 216.886L125.504 211.714ZM117.485 214C114.066 214 111.524 212.918 109.574 210.877L105.236 215.023C108.447 218.382 112.624 220 117.485 220V214ZM109.597 210.901C107.646 208.815 106.535 205.918 106.535 201.88H100.535C100.535 207.082 102.004 211.565 105.214 214.999L109.597 210.901ZM106.535 201.88C106.535 197.809 107.497 193.65 109.493 189.381L104.057 186.839C101.734 191.81 100.535 196.831 100.535 201.88H106.535ZM109.486 189.396C111.524 185.099 114.246 181.634 117.64 178.94L113.91 174.24C109.745 177.546 106.467 181.761 104.065 186.824L109.486 189.396ZM117.663 178.922C120.947 176.263 124.46 175 128.285 175V169C122.99 169 118.163 170.797 113.888 174.258L117.663 178.922ZM128.285 175C131.548 175 133.899 176.008 135.653 177.849L139.998 173.711C136.951 170.512 132.942 169 128.285 169V175ZM135.678 177.875C137.295 179.532 138.425 182.502 138.425 187.48H144.425C144.425 181.778 143.156 176.948 139.972 173.685L135.678 177.875ZM138.425 187.48C138.425 190.373 138.016 193.172 137.202 195.888L142.949 197.612C143.934 194.328 144.425 190.947 144.425 187.48H138.425ZM140.075 199.75H140.705V193.75H140.075V199.75ZM140.705 199.75C144.733 199.75 147.954 197.532 150.37 194.05L145.44 190.63C143.776 193.028 142.197 193.75 140.705 193.75V199.75ZM122.615 201.37C124.684 201.37 126.6 200.752 128.265 199.525L124.706 194.695C124.09 195.148 123.426 195.37 122.615 195.37V201.37ZM128.285 199.51C129.851 198.335 131.087 196.865 131.958 195.122L126.592 192.438C126.144 193.335 125.519 194.085 124.685 194.71L128.285 199.51ZM131.958 195.122C132.791 193.456 133.265 191.709 133.265 189.91H127.265C127.265 190.631 127.079 191.464 126.592 192.438L131.958 195.122ZM133.265 189.91C133.265 187.869 132.621 185.967 131.198 184.443L126.812 188.537C127.069 188.813 127.265 189.191 127.265 189.91H133.265ZM131.272 184.525C129.718 182.732 127.495 182.14 125.315 182.14V188.14C126.495 188.14 126.732 188.448 126.738 188.455L131.272 184.525ZM125.315 182.14C122.247 182.14 119.655 183.468 117.694 185.837L122.316 189.663C123.235 188.552 124.183 188.14 125.315 188.14V182.14ZM117.655 185.886C115.88 188.123 114.935 190.692 114.935 193.51H120.935C120.935 192.128 121.37 190.857 122.356 189.614L117.655 185.886ZM114.935 193.51C114.935 195.457 115.43 197.341 116.673 198.894L121.358 195.146C121.16 194.899 120.935 194.443 120.935 193.51H114.935ZM116.748 198.985C118.283 200.756 120.454 201.37 122.615 201.37V195.37C121.536 195.37 121.307 195.084 121.282 195.055L116.748 198.985ZM190.708 192.34L193.173 194.05L193.247 193.942L193.313 193.828L190.708 192.34ZM194.308 192.61L196.326 190.39L196.326 190.39L194.308 192.61ZM194.758 194.59L192.075 193.248L192.061 193.276L192.048 193.304L194.758 194.59ZM177.928 206.92V203.92H176.404L175.506 205.15L177.928 206.92ZM169.828 214.3L168.329 211.701L168.318 211.708L168.307 211.714L169.828 214.3ZM150.208 212.95L148.016 214.999L148.028 215.011L148.039 215.023L150.208 212.95ZM149.578 188.11L146.867 186.824L146.864 186.832L146.86 186.839L149.578 188.11ZM158.578 176.59L160.443 178.94L160.454 178.931L160.465 178.922L158.578 176.59ZM180.628 175.78L178.455 177.849L178.468 177.862L178.481 177.875L180.628 175.78ZM182.878 196.75L180.004 195.888L178.846 199.75H182.878V196.75ZM169.288 197.11L171.067 199.525L171.078 199.518L171.088 199.51L169.288 197.11ZM172.078 193.78L174.761 195.122L174.761 195.122L172.078 193.78ZM171.808 186.49L169.541 188.455L169.577 188.497L169.615 188.537L171.808 186.49ZM162.808 187.75L160.497 185.837L160.477 185.861L160.457 185.886L162.808 187.75ZM161.818 197.02L159.475 198.894L159.512 198.94L159.551 198.985L161.818 197.02ZM193.313 193.828C193.116 194.172 192.815 194.436 192.494 194.586C192.214 194.717 192.029 194.71 192.058 194.71V188.71C190.765 188.71 189.066 189.167 188.103 190.852L193.313 193.828ZM192.058 194.71C192.112 194.71 192.13 194.718 192.136 194.72C192.146 194.724 192.197 194.746 192.29 194.83L196.326 190.39C195.151 189.322 193.693 188.71 192.058 188.71V194.71ZM192.29 194.83C192.308 194.847 192.088 194.653 191.99 194.22C191.883 193.751 192.006 193.386 192.075 193.248L197.441 195.932C197.87 195.074 198.097 194.019 197.841 192.89C197.592 191.797 196.968 190.973 196.326 190.39L192.29 194.83ZM192.048 193.304C190.501 196.562 188.636 199.186 186.48 201.236L190.615 205.584C193.38 202.954 195.654 199.698 197.468 195.876L192.048 193.304ZM186.48 201.236C184.661 202.967 182.261 203.92 179.008 203.92V209.92C183.554 209.92 187.515 208.533 190.615 205.584L186.48 201.236ZM179.008 203.92H177.928V209.92H179.008V203.92ZM175.506 205.15C173.454 207.957 171.061 210.125 168.329 211.701L171.327 216.899C174.835 214.875 177.842 212.123 180.35 208.69L175.506 205.15ZM168.307 211.714C165.672 213.264 163.013 214 160.288 214V220C164.163 220 167.864 218.936 171.349 216.886L168.307 211.714ZM160.288 214C156.869 214 154.326 212.918 152.377 210.877L148.039 215.023C151.249 218.382 155.427 220 160.288 220V214ZM152.399 210.901C150.449 208.815 149.338 205.918 149.338 201.88H143.338C143.338 207.082 144.807 211.565 148.016 214.999L152.399 210.901ZM149.338 201.88C149.338 197.809 150.299 193.65 152.295 189.381L146.86 186.839C144.536 191.81 143.338 196.831 143.338 201.88H149.338ZM152.288 189.396C154.326 185.099 157.048 181.634 160.443 178.94L156.713 174.24C152.547 177.546 149.269 181.761 146.867 186.824L152.288 189.396ZM160.465 178.922C163.75 176.263 167.263 175 171.088 175V169C165.793 169 160.966 170.797 156.69 174.258L160.465 178.922ZM171.088 175C174.351 175 176.702 176.008 178.455 177.849L182.8 173.711C179.754 170.512 175.745 169 171.088 169V175ZM178.481 177.875C180.097 179.532 181.228 182.502 181.228 187.48H187.228C187.228 181.778 185.958 176.948 182.775 173.685L178.481 177.875ZM181.228 187.48C181.228 190.373 180.819 193.172 180.004 195.888L185.751 197.612C186.737 194.328 187.228 190.947 187.228 187.48H181.228ZM182.878 199.75H183.508V193.75H182.878V199.75ZM183.508 199.75C187.536 199.75 190.757 197.532 193.173 194.05L188.243 190.63C186.579 193.028 185 193.75 183.508 193.75V199.75ZM165.418 201.37C167.487 201.37 169.403 200.752 171.067 199.525L167.508 194.695C166.893 195.148 166.229 195.37 165.418 195.37V201.37ZM171.088 199.51C172.654 198.335 173.889 196.865 174.761 195.122L169.395 192.438C168.946 193.335 168.322 194.085 167.488 194.71L171.088 199.51ZM174.761 195.122C175.594 193.456 176.068 191.709 176.068 189.91H170.068C170.068 190.631 169.882 191.464 169.395 192.438L174.761 195.122ZM176.068 189.91C176.068 187.869 175.424 185.967 174.001 184.443L169.615 188.537C169.872 188.813 170.068 189.191 170.068 189.91H176.068ZM174.075 184.525C172.521 182.732 170.298 182.14 168.118 182.14V188.14C169.298 188.14 169.535 188.448 169.541 188.455L174.075 184.525ZM168.118 182.14C165.05 182.14 162.457 183.468 160.497 185.837L165.119 189.663C166.038 188.552 166.986 188.14 168.118 188.14V182.14ZM160.457 185.886C158.683 188.123 157.738 190.692 157.738 193.51H163.738C163.738 192.128 164.173 190.857 165.158 189.614L160.457 185.886ZM157.738 193.51C157.738 195.457 158.232 197.341 159.475 198.894L164.16 195.146C163.963 194.899 163.738 194.443 163.738 193.51H157.738ZM159.551 198.985C161.086 200.756 163.257 201.37 165.418 201.37V195.37C164.339 195.37 164.11 195.084 164.085 195.055L159.551 198.985ZM191.391 213.49L188.954 215.24L188.968 215.26L188.983 215.28L191.391 213.49ZM191.571 189.64L194.392 190.66L194.396 190.649L191.571 189.64ZM199.491 177.04L197.425 174.864L197.416 174.873L197.407 174.882L199.491 177.04ZM216.681 172.81L218.084 170.159L218.084 170.159L216.681 172.81ZM219.291 175.06L216.891 176.86L216.949 176.938L217.013 177.012L219.291 175.06ZM222.081 175.51L219.339 174.292L219.28 174.424L219.235 174.561L222.081 175.51ZM223.071 172.54L225.951 173.38L225.96 173.347L225.969 173.313L223.071 172.54ZM226.581 162.1L223.807 160.956L223.806 160.96L226.581 162.1ZM231.261 154.36L233.248 156.607L233.248 156.607L231.261 154.36ZM238.371 153.28L236.049 155.18L236.098 155.24L236.151 155.298L238.371 153.28ZM238.101 160.75L235.363 159.523L235.333 159.589L235.307 159.658L238.101 160.75ZM227.931 186.76L230.627 188.075L230.68 187.966L230.725 187.852L227.931 186.76ZM236.931 192.34L234.434 190.676L234.411 190.71L234.389 190.746L236.931 192.34ZM240.441 192.61L238.136 194.531L238.181 194.585L238.229 194.637L240.441 192.61ZM240.981 194.59L238.297 193.248L238.297 193.248L240.981 194.59ZM238.821 198.91L236.137 197.568L236.129 197.585L236.121 197.602L238.821 198.91ZM233.871 208.27L236.426 209.842L236.434 209.828L236.443 209.813L233.871 208.27ZM215.781 214.12L213.345 215.871L213.362 215.896L213.381 215.92L215.781 214.12ZM213.891 203.86L216.878 204.132L217.176 200.86H213.891V203.86ZM213.531 203.86V200.86H211.689L210.856 202.502L213.531 203.86ZM206.781 213.4L208.85 215.572L208.863 215.56L208.876 215.547L206.781 213.4ZM211.191 197.11L212.97 199.525L212.98 199.518L212.991 199.51L211.191 197.11ZM213.981 193.78L211.297 192.438L211.297 192.438L213.981 193.78ZM213.711 186.49L211.444 188.455L211.48 188.497L211.517 188.537L213.711 186.49ZM204.711 187.75L202.399 185.837L202.379 185.861L202.36 185.886L204.711 187.75ZM203.721 197.02L201.378 198.894L201.415 198.94L201.454 198.985L203.721 197.02ZM199.131 214C196.473 214 194.869 213.141 193.798 211.7L188.983 215.28C191.392 218.519 194.948 220 199.131 220V214ZM193.828 211.74C192.618 210.056 191.871 207.639 191.871 204.22H185.871C185.871 208.481 186.803 212.244 188.954 215.24L193.828 211.74ZM191.871 204.22C191.871 199.866 192.696 195.351 194.392 190.66L188.749 188.62C186.845 193.889 185.871 199.094 185.871 204.22H191.871ZM194.396 190.649C196.057 185.997 198.461 182.204 201.574 179.198L197.407 174.882C193.56 178.596 190.684 183.203 188.745 188.631L194.396 190.649ZM201.556 179.216C204.541 176.383 208.003 175 212.091 175V169C206.458 169 201.52 170.977 197.425 174.864L201.556 179.216ZM212.091 175C213.964 175 214.905 175.264 215.277 175.461L218.084 170.159C216.416 169.276 214.297 169 212.091 169V175ZM215.277 175.461C215.89 175.786 216.425 176.239 216.891 176.86L221.691 173.26C220.716 171.961 219.511 170.914 218.084 170.159L215.277 175.461ZM217.013 177.012C217.858 177.998 219.287 179.32 221.271 179.32V173.32C221.69 173.32 221.929 173.469 221.936 173.474C221.942 173.478 221.91 173.458 221.842 173.396C221.775 173.334 221.683 173.241 221.568 173.108L217.013 177.012ZM221.271 179.32C223.623 179.32 224.616 177.391 224.927 176.459L219.235 174.561C219.235 174.559 219.255 174.5 219.306 174.407C219.358 174.315 219.455 174.162 219.622 173.996C220.012 173.606 220.603 173.32 221.271 173.32V179.32ZM224.822 176.728C225.154 175.982 225.533 174.812 225.951 173.38L220.191 171.7C219.768 173.148 219.487 173.958 219.339 174.292L224.822 176.728ZM225.969 173.313C226.897 169.835 228.026 166.477 229.356 163.24L223.806 160.96C222.375 164.443 221.164 168.045 220.172 171.767L225.969 173.313ZM229.354 163.244C230.876 159.556 232.224 157.513 233.248 156.607L229.273 152.113C227.177 153.967 225.405 157.084 223.807 160.956L229.354 163.244ZM233.248 156.607C234.421 155.57 235.333 155.29 236.031 155.29V149.29C233.489 149.29 231.22 150.39 229.273 152.113L233.248 156.607ZM236.031 155.29C236.219 155.29 236.259 155.32 236.212 155.3C236.188 155.291 236.156 155.273 236.121 155.247C236.086 155.221 236.062 155.196 236.049 155.18L240.692 151.38C239.469 149.885 237.755 149.29 236.031 149.29V155.29ZM236.151 155.298C236.137 155.283 236.159 155.296 236.19 155.394C236.225 155.502 236.271 155.714 236.271 156.07H242.271C242.271 154.385 241.844 152.641 240.59 151.262L236.151 155.298ZM236.271 156.07C236.271 156.898 236.032 158.031 235.363 159.523L240.838 161.977C241.729 159.989 242.271 158.002 242.271 156.07H236.271ZM235.307 159.658L225.137 185.668L230.725 187.852L240.895 161.842L235.307 159.658ZM225.234 185.445C223.929 188.12 223.131 190.719 223.131 193.15H229.131C229.131 191.981 229.532 190.32 230.627 188.075L225.234 185.445ZM223.131 193.15C223.131 194.855 223.546 196.687 224.906 198.081C226.28 199.487 228.11 199.93 229.821 199.93V193.93C229.072 193.93 229.057 193.743 229.2 193.889C229.33 194.023 229.131 193.965 229.131 193.15H223.131ZM229.821 199.93C233.965 199.93 237.178 197.59 239.472 193.934L234.389 190.746C232.843 193.21 231.316 193.93 229.821 193.93V199.93ZM239.427 194.004C239.391 194.057 239.271 194.213 239.031 194.347C238.783 194.487 238.538 194.53 238.371 194.53V188.53C236.674 188.53 235.297 189.382 234.434 190.676L239.427 194.004ZM238.371 194.53C238.333 194.53 238.282 194.525 238.225 194.511C238.168 194.497 238.12 194.478 238.085 194.46C238.015 194.423 238.039 194.414 238.136 194.531L242.745 190.689C241.702 189.438 240.222 188.53 238.371 188.53V194.53ZM238.229 194.637C238.365 194.786 238.254 194.72 238.176 194.434C238.134 194.278 238.107 194.076 238.129 193.844C238.151 193.612 238.217 193.409 238.297 193.248L243.664 195.932C244.77 193.72 243.698 191.724 242.652 190.583L238.229 194.637ZM238.297 193.248L236.137 197.568L241.504 200.252L243.664 195.932L238.297 193.248ZM236.121 197.602C234.282 201.399 232.675 204.432 231.298 206.727L236.443 209.813C237.946 207.308 239.639 204.101 241.521 200.218L236.121 197.602ZM231.316 206.698C230.036 208.777 228.499 210.576 226.704 212.107L230.597 216.673C232.882 214.724 234.825 212.443 236.426 209.842L231.316 206.698ZM226.704 212.107C225.197 213.392 223.545 214 221.631 214V220C224.996 220 228.024 218.868 230.597 216.673L226.704 212.107ZM221.631 214C220.087 214 219.038 213.463 218.181 212.32L213.381 215.92C215.404 218.617 218.254 220 221.631 220V214ZM218.217 212.369C217.298 211.091 216.711 209.266 216.711 206.65H210.711C210.711 210.154 211.503 213.309 213.345 215.871L218.217 212.369ZM216.711 206.65C216.711 206.261 216.758 205.453 216.878 204.132L210.903 203.588C210.783 204.907 210.711 205.959 210.711 206.65H216.711ZM213.891 200.86H213.531V206.86H213.891V200.86ZM210.856 202.502C208.99 206.177 206.921 209.07 204.685 211.253L208.876 215.547C211.68 212.81 214.111 209.343 216.206 205.218L210.856 202.502ZM204.712 211.228C202.551 213.286 200.704 214 199.131 214V220C202.717 220 205.97 218.314 208.85 215.572L204.712 211.228ZM207.321 201.37C209.389 201.37 211.305 200.752 212.97 199.525L209.411 194.695C208.796 195.148 208.132 195.37 207.321 195.37V201.37ZM212.991 199.51C214.557 198.335 215.792 196.865 216.664 195.122L211.297 192.438C210.849 193.335 210.224 194.085 209.391 194.71L212.991 199.51ZM216.664 195.122C217.497 193.456 217.971 191.709 217.971 189.91H211.971C211.971 190.631 211.785 191.464 211.297 192.438L216.664 195.122ZM217.971 189.91C217.971 187.869 217.326 185.967 215.904 184.443L211.517 188.537C211.775 188.813 211.971 189.191 211.971 189.91H217.971ZM215.978 184.525C214.423 182.732 212.201 182.14 210.021 182.14V188.14C211.201 188.14 211.438 188.448 211.444 188.455L215.978 184.525ZM210.021 182.14C206.952 182.14 204.36 183.468 202.399 185.837L207.022 189.663C207.941 188.552 208.889 188.14 210.021 188.14V182.14ZM202.36 185.886C200.585 188.123 199.641 190.692 199.641 193.51H205.641C205.641 192.128 206.076 190.857 207.061 189.614L202.36 185.886ZM199.641 193.51C199.641 195.457 200.135 197.341 201.378 198.894L206.063 195.146C205.866 194.899 205.641 194.443 205.641 193.51H199.641ZM201.454 198.985C202.988 200.756 205.16 201.37 207.321 201.37V195.37C206.242 195.37 206.013 195.084 205.988 195.055L201.454 198.985ZM332.333 155.98L330.479 158.339L330.488 158.346L330.497 158.353L332.333 155.98ZM337.103 184.42L339.777 185.779L339.782 185.77L339.786 185.762L337.103 184.42ZM328.823 193.42L327.207 190.892L327.197 190.899L327.188 190.905L328.823 193.42ZM311.813 196.48L310.814 199.309L310.89 199.336L310.966 199.358L311.813 196.48ZM308.933 195.13L310.476 192.558L310.44 192.536L310.403 192.515L308.933 195.13ZM304.433 195.58L301.909 193.958L301.822 194.094L301.749 194.238L304.433 195.58ZM303.983 196.48L301.225 195.298L306.666 197.822L303.983 196.48ZM303.983 196.48L301.225 195.298L301.202 195.352L301.181 195.406L303.983 196.48ZM292.913 214.03L295.006 216.179L295.006 216.179L292.913 214.03ZM266.453 216.46L264.152 218.385L264.162 218.397L264.172 218.408L266.453 216.46ZM264.293 198.73L267.031 199.955L267.037 199.942L267.043 199.929L264.293 198.73ZM268.523 193.15L270.348 195.531L270.373 195.512L270.397 195.493L268.523 193.15ZM275.633 191.35L273.511 193.471L273.773 193.732L274.089 193.922L275.633 191.35ZM278.243 196.93L276.267 199.188L276.294 199.212L276.322 199.235L278.243 196.93ZM292.193 194.86L294.171 197.115L294.184 197.104L294.197 197.092L292.193 194.86ZM299.573 183.34L302.365 184.437L302.365 184.437L299.573 183.34ZM300.563 180.82L303.355 181.917L303.367 181.887L303.378 181.857L300.563 180.82ZM302.363 176.05L305.165 177.121L305.17 177.108L305.175 177.095L302.363 176.05ZM304.343 170.83L307.136 171.923L307.144 171.903L307.152 171.883L304.343 170.83ZM314.153 171.37L316.991 172.343L317.022 172.252L317.047 172.159L314.153 171.37ZM313.073 174.52L310.235 173.547L310.232 173.555L313.073 174.52ZM311.183 180.37L308.272 179.642L313.94 181.552L311.183 180.37ZM311.453 179.74L314.262 180.793L308.695 178.558L311.453 179.74ZM320.003 183.52L318.473 180.939L318.452 180.952L318.43 180.965L320.003 183.52ZM323.963 179.38L326.573 180.859L326.573 180.859L323.963 179.38ZM321.533 164.71L323.184 162.205L323.184 162.205L321.533 164.71ZM295.883 165.07L297.31 167.709L297.31 167.709L295.883 165.07ZM291.383 176.95L289.024 178.803L289.057 178.846L289.093 178.888L291.383 176.95ZM293.813 178.12L296.659 177.171L295.975 175.12H293.813V178.12ZM292.643 184.33L290.132 182.688L290.132 182.688L292.643 184.33ZM288.323 188.29L289.802 190.9L289.815 190.892L289.829 190.884L288.323 188.29ZM273.743 186.22L271.406 188.101L271.417 188.115L271.429 188.129L273.743 186.22ZM275.543 163.63L277.922 165.457L277.922 165.457L275.543 163.63ZM289.043 153.73L287.885 150.962L287.875 150.967L289.043 153.73ZM309.473 153.04C319.371 153.04 326.2 154.977 330.479 158.339L334.186 153.621C328.386 149.063 319.974 147.04 309.473 147.04V153.04ZM330.497 158.353C334.674 161.585 336.893 166.303 336.893 172.99H342.893C342.893 164.797 340.071 158.175 334.169 153.607L330.497 158.353ZM336.893 172.99C336.893 176.394 336.085 179.747 334.419 183.078L339.786 185.762C341.84 181.653 342.893 177.386 342.893 172.99H336.893ZM334.428 183.061C332.825 186.216 330.443 188.823 327.207 190.892L330.439 195.948C334.522 193.337 337.661 189.944 339.777 185.779L334.428 183.061ZM327.188 190.905C324.16 192.873 320.403 193.93 315.773 193.93V199.93C321.342 199.93 326.286 198.647 330.458 195.935L327.188 190.905ZM315.773 193.93C314.306 193.93 313.301 193.791 312.659 193.602L310.966 199.358C312.365 199.769 313.999 199.93 315.773 199.93V193.93ZM312.811 193.651C311.975 193.356 311.198 192.991 310.476 192.558L307.389 197.702C308.467 198.349 309.61 198.884 310.814 199.309L312.811 193.651ZM310.403 192.515C309.313 191.902 307.979 191.32 306.593 191.32V197.32C306.459 197.32 306.462 197.294 306.646 197.357C306.822 197.418 307.09 197.535 307.462 197.745L310.403 192.515ZM306.593 191.32C304.546 191.32 302.93 192.371 301.909 193.958L306.956 197.202C307.02 197.102 307.012 197.155 306.889 197.226C306.831 197.26 306.767 197.287 306.704 197.303C306.643 197.319 306.603 197.32 306.593 197.32V191.32ZM301.749 194.238L301.299 195.138L306.666 197.822L307.116 196.922L301.749 194.238ZM306.74 197.662L307.01 197.032L301.495 194.668L301.225 195.298L306.74 197.662ZM301.495 194.668L301.225 195.298L306.74 197.662L307.01 197.032L301.495 194.668ZM301.181 195.406C298.547 202.279 295.074 207.737 290.819 211.881L295.006 216.179C299.992 211.323 303.898 205.081 306.784 197.554L301.181 195.406ZM290.819 211.881C286.673 215.92 282.267 217.78 277.523 217.78V223.78C284.058 223.78 289.913 221.14 295.006 216.179L290.819 211.881ZM277.523 217.78C273.2 217.78 270.464 216.537 268.734 214.512L264.172 218.408C267.362 222.143 272.006 223.78 277.523 223.78V217.78ZM268.754 214.535C266.776 212.171 265.763 209.355 265.763 205.93H259.763C259.763 210.665 261.21 214.869 264.152 218.385L268.754 214.535ZM265.763 205.93C265.763 203.828 266.185 201.846 267.031 199.955L261.554 197.505C260.36 200.174 259.763 202.992 259.763 205.93H265.763ZM267.043 199.929C267.886 197.995 269 196.564 270.348 195.531L266.697 190.769C264.445 192.496 262.74 194.785 261.543 197.531L267.043 199.929ZM270.397 195.493C271.656 194.485 273.063 193.99 274.733 193.99V187.99C271.723 187.99 268.989 188.935 266.649 190.807L270.397 195.493ZM274.733 193.99C274.575 193.99 274.356 193.962 274.114 193.865C273.867 193.767 273.664 193.624 273.511 193.471L277.754 189.229C276.915 188.389 275.835 187.99 274.733 187.99V193.99ZM274.089 193.922C273.927 193.825 273.655 193.621 273.426 193.255C273.185 192.869 273.083 192.447 273.083 192.07H279.083C279.083 190.524 278.202 189.393 277.176 188.778L274.089 193.922ZM273.083 192.07C273.083 194.881 274.151 197.336 276.267 199.188L280.218 194.672C279.455 194.004 279.083 193.219 279.083 192.07H273.083ZM276.322 199.235C278.382 200.951 280.894 201.73 283.643 201.73V195.73C282.072 195.73 280.983 195.309 280.163 194.625L276.322 199.235ZM283.643 201.73C287.384 201.73 290.91 199.977 294.171 197.115L290.214 192.605C287.595 194.903 285.421 195.73 283.643 195.73V201.73ZM294.197 197.092C297.589 194.047 300.274 189.759 302.365 184.437L296.78 182.243C294.911 187.001 292.677 190.393 290.188 192.628L294.197 197.092ZM302.365 184.437L303.355 181.917L297.77 179.723L296.78 182.243L302.365 184.437ZM303.378 181.857C303.791 180.734 304.386 179.157 305.165 177.121L299.561 174.979C298.779 177.023 298.174 178.626 297.748 179.783L303.378 181.857ZM305.175 177.095C305.952 175.004 306.605 173.281 307.136 171.923L301.549 169.737C301 171.139 300.334 172.896 299.55 175.005L305.175 177.095ZM307.152 171.883C307.542 170.841 308 170.297 308.397 170.003C308.775 169.724 309.316 169.51 310.193 169.51V163.51C308.25 163.51 306.405 164.016 304.833 165.177C303.281 166.323 302.223 167.939 301.534 169.777L307.152 171.883ZM310.193 169.51C310.727 169.51 311.098 169.559 311.34 169.618C311.581 169.676 311.639 169.729 311.607 169.706C311.556 169.669 311.48 169.588 311.434 169.487C311.394 169.401 311.423 169.404 311.423 169.57H317.423C317.423 167.776 316.75 166.021 315.124 164.844C313.677 163.798 311.875 163.51 310.193 163.51V169.51ZM311.423 169.57C311.423 169.783 311.386 170.113 311.258 170.581L317.047 172.159C317.279 171.307 317.423 170.437 317.423 169.57H311.423ZM311.315 170.397L310.235 173.547L315.911 175.493L316.991 172.343L311.315 170.397ZM310.232 173.555C309.17 176.682 308.49 178.773 308.272 179.642L314.093 181.098C314.236 180.527 314.815 178.718 315.913 175.485L310.232 173.555ZM313.94 181.552L314.21 180.922L308.695 178.558L308.425 179.188L313.94 181.552ZM308.644 178.687C308.207 179.852 307.913 181.063 307.913 182.26H313.913C313.913 182.017 313.979 181.548 314.262 180.793L308.644 178.687ZM307.913 182.26C307.913 183.978 308.562 185.76 310.292 186.861L313.513 181.799C313.569 181.835 313.639 181.89 313.708 181.968C313.778 182.046 313.831 182.128 313.867 182.203C313.938 182.352 313.913 182.403 313.913 182.26H307.913ZM310.292 186.861C311.691 187.751 313.453 187.96 315.053 187.96V181.96C314.467 181.96 314.052 181.916 313.774 181.861C313.487 181.803 313.439 181.752 313.513 181.799L310.292 186.861ZM315.053 187.96C317.378 187.96 319.568 187.31 321.575 186.075L318.43 180.965C317.317 181.65 316.208 181.96 315.053 181.96V187.96ZM321.532 186.101C323.646 184.848 325.321 183.068 326.573 180.859L321.353 177.901C320.564 179.292 319.6 180.272 318.473 180.939L321.532 186.101ZM326.573 180.859C327.893 178.53 328.493 175.87 328.493 172.99H322.493C322.493 175.03 322.073 176.63 321.353 177.901L326.573 180.859ZM328.493 172.99C328.493 168.429 326.839 164.615 323.184 162.205L319.882 167.215C321.506 168.285 322.493 169.991 322.493 172.99H328.493ZM323.184 162.205C319.833 159.997 315.244 159.1 309.833 159.1V165.1C314.742 165.1 317.952 165.943 319.882 167.215L323.184 162.205ZM309.833 159.1C303.864 159.1 298.682 160.145 294.455 162.431L297.31 167.709C300.404 166.035 304.522 165.1 309.833 165.1V159.1ZM294.455 162.431C292.259 163.619 290.459 165.181 289.218 167.175C287.971 169.179 287.393 171.452 287.393 173.89H293.393C293.393 172.428 293.729 171.281 294.312 170.345C294.901 169.399 295.846 168.501 297.31 167.709L294.455 162.431ZM287.393 173.89C287.393 175.675 287.897 177.37 289.024 178.803L293.742 175.097C293.548 174.85 293.393 174.505 293.393 173.89H287.393ZM289.093 178.888C290.281 180.292 291.908 181.12 293.813 181.12V175.12C293.777 175.12 293.763 175.117 293.766 175.117C293.77 175.118 293.778 175.12 293.787 175.124C293.795 175.128 293.791 175.128 293.774 175.115C293.757 175.101 293.722 175.07 293.673 175.012L289.093 178.888ZM290.967 179.069C291.061 179.351 291.116 179.56 291.147 179.706C291.179 179.859 291.173 179.89 291.173 179.83H297.173C297.173 178.926 296.932 177.992 296.659 177.171L290.967 179.069ZM291.173 179.83C291.173 180.538 290.925 181.474 290.132 182.688L295.154 185.972C296.4 184.066 297.173 182.002 297.173 179.83H291.173ZM290.132 182.688C289.405 183.801 288.334 184.814 286.816 185.696L289.829 190.884C292.031 189.606 293.841 187.979 295.154 185.972L290.132 182.688ZM286.844 185.68C285.562 186.406 283.988 186.82 282.023 186.82V192.82C284.857 192.82 287.483 192.214 289.802 190.9L286.844 185.68ZM282.023 186.82C279.24 186.82 277.384 185.92 276.057 184.311L271.429 188.129C274.061 191.32 277.726 192.82 282.023 192.82V186.82ZM276.08 184.339C274.573 182.467 273.773 180.18 273.773 177.31H267.773C267.773 181.4 268.952 185.053 271.406 188.101L276.08 184.339ZM273.773 177.31C273.773 173.024 275.124 169.1 277.922 165.457L273.164 161.803C269.602 166.44 267.773 171.636 267.773 177.31H273.773ZM277.922 165.457C280.726 161.807 284.768 158.794 290.211 156.493L287.875 150.967C281.677 153.586 276.72 157.173 273.164 161.803L277.922 165.457ZM290.201 156.498C295.644 154.22 302.047 153.04 309.473 153.04V147.04C301.418 147.04 294.201 148.32 287.885 150.962L290.201 156.498ZM337.802 192.34L340.633 193.332L340.636 193.324L340.639 193.315L337.802 192.34ZM339.782 186.58L336.945 185.604L336.945 185.605L339.782 186.58ZM347.072 166.24L344.284 165.132L344.28 165.143L344.276 165.153L347.072 166.24ZM360.482 160.75L357.815 159.376L357.805 159.395L357.795 159.415L360.482 160.75ZM349.952 186.58L352.831 187.423L352.839 187.395L352.846 187.367L349.952 186.58ZM349.772 195.76L347.394 197.589L347.436 197.644L347.481 197.698L349.772 195.76ZM360.392 192.34L357.895 190.676L357.884 190.693L357.873 190.71L360.392 192.34ZM363.992 192.61L361.687 194.531L361.732 194.585L361.78 194.637L363.992 192.61ZM364.442 194.59L361.869 193.047L361.818 193.131L361.773 193.22L364.442 194.59ZM362.732 197.92L360.063 196.55L360.046 196.582L360.03 196.616L362.732 197.92ZM357.782 207.01L355.241 205.415L355.227 205.436L355.214 205.458L357.782 207.01ZM351.662 213.94L349.774 211.608L349.76 211.619L349.747 211.631L351.662 213.94ZM343.292 214C340.969 214 339.761 213.382 339.084 212.649C338.366 211.869 337.742 210.415 337.742 207.73H331.742C331.742 211.225 332.542 214.406 334.674 216.716C336.848 219.073 339.914 220 343.292 220V214ZM337.742 207.73C337.742 203.731 338.664 198.948 340.633 193.332L334.97 191.348C332.859 197.372 331.742 202.849 331.742 207.73H337.742ZM340.639 193.315L342.619 187.555L336.945 185.605L334.965 191.365L340.639 193.315ZM342.618 187.556C345.796 178.322 348.21 171.589 349.868 167.327L344.276 165.153C342.573 169.531 340.127 176.358 336.945 185.604L342.618 187.556ZM349.86 167.348C351.551 163.09 353.211 159.927 354.803 157.752L349.961 154.208C347.952 156.953 346.072 160.63 344.284 165.132L349.86 167.348ZM354.803 157.752C356.286 155.725 357.472 155.29 358.322 155.29V149.29C354.851 149.29 352.078 151.315 349.961 154.208L354.803 157.752ZM358.322 155.29C358.721 155.29 358.956 155.336 359.072 155.371C359.177 155.403 359.151 155.414 359.079 155.35C359.046 155.32 359.017 155.285 358.994 155.252C358.973 155.219 358.965 155.199 358.967 155.203C358.971 155.214 359.012 155.334 359.012 155.62H365.012C365.012 153.964 364.539 152.194 363.099 150.895C361.718 149.649 359.942 149.29 358.322 149.29V155.29ZM359.012 155.62C359.012 156.391 358.724 157.61 357.815 159.376L363.149 162.124C364.279 159.93 365.012 157.729 365.012 155.62H359.012ZM357.795 159.415C352.595 169.875 348.99 178.683 347.057 185.793L352.846 187.367C354.633 180.797 358.048 172.385 363.168 162.085L357.795 159.415ZM347.072 185.737C346.32 188.307 345.872 190.603 345.872 192.52H351.872C351.872 191.437 352.143 189.773 352.831 187.423L347.072 185.737ZM345.872 192.52C345.872 194.301 346.256 196.11 347.394 197.589L352.149 193.931C352.087 193.85 351.872 193.499 351.872 192.52H345.872ZM347.481 197.698C348.957 199.442 351.128 199.93 353.102 199.93V193.93C352.557 193.93 352.244 193.86 352.094 193.807C351.965 193.762 351.998 193.746 352.062 193.822L347.481 197.698ZM353.102 199.93C357.272 199.93 360.544 197.627 362.91 193.97L357.873 190.71C356.279 193.173 354.691 193.93 353.102 193.93V199.93ZM362.888 194.004C362.852 194.057 362.732 194.213 362.492 194.347C362.244 194.487 361.999 194.53 361.832 194.53V188.53C360.135 188.53 358.758 189.382 357.895 190.676L362.888 194.004ZM361.832 194.53C361.826 194.53 361.801 194.529 361.765 194.521C361.727 194.512 361.691 194.499 361.66 194.483C361.63 194.468 361.616 194.457 361.619 194.459C361.623 194.463 361.647 194.483 361.687 194.531L366.296 190.689C365.201 189.375 363.672 188.53 361.832 188.53V194.53ZM361.78 194.637C361.904 194.773 361.754 194.665 361.674 194.31C361.63 194.118 361.615 193.885 361.657 193.636C361.698 193.388 361.784 193.188 361.869 193.047L367.014 196.133C367.577 195.195 367.777 194.092 367.525 192.98C367.294 191.965 366.739 191.167 366.203 190.583L361.78 194.637ZM361.773 193.22L360.063 196.55L365.4 199.29L367.11 195.96L361.773 193.22ZM360.03 196.616C358.386 200.021 356.789 202.95 355.241 205.415L360.322 208.605C362.014 205.91 363.717 202.779 365.433 199.224L360.03 196.616ZM355.214 205.458C353.847 207.719 352.044 209.77 349.774 211.608L353.549 216.272C356.319 214.03 358.596 211.461 360.349 208.562L355.214 205.458ZM349.747 211.631C347.811 213.236 345.694 214 343.292 214V220C347.129 220 350.593 218.724 353.577 216.249L349.747 211.631ZM405.387 192.34L407.868 194.027L407.876 194.016L407.884 194.004L405.387 192.34ZM408.987 192.61L406.683 194.531L406.728 194.585L406.776 194.637L408.987 192.61ZM409.437 194.59L406.865 193.047L406.814 193.131L406.769 193.22L409.437 194.59ZM407.727 197.92L405.059 196.55L405.042 196.582L405.026 196.616L407.727 197.92ZM402.777 207.01L400.237 205.415L400.223 205.436L400.21 205.458L402.777 207.01ZM396.657 213.94L394.77 211.608L394.756 211.619L394.742 211.631L396.657 213.94ZM380.817 203.5L383.79 203.905L378.094 202.243L380.817 203.5ZM374.607 213.13L372.409 211.089L374.607 213.13ZM360.477 214.3L358.097 216.125L358.112 216.145L358.127 216.164L360.477 214.3ZM360.387 192.34L357.529 191.429L357.525 191.441L357.522 191.452L360.387 192.34ZM366.777 177.13L364.241 175.528L364.237 175.534L364.233 175.54L366.777 177.13ZM375.957 179.47L373.073 178.646L373.054 178.71L373.039 178.775L375.957 179.47ZM374.427 184.6L377.256 185.598L377.265 185.574L377.273 185.549L374.427 184.6ZM372.897 189.37L369.996 188.607L369.996 188.607L372.897 189.37ZM373.257 195.85L375.579 193.95L375.579 193.95L373.257 195.85ZM383.787 190.54L386.625 191.513L386.667 191.392L386.698 191.268L383.787 190.54ZM383.877 190.18L381.015 189.282L380.988 189.366L380.967 189.452L383.877 190.18ZM389.637 176.5L387.111 174.883L387.111 174.883L389.637 176.5ZM398.097 179.2L395.213 178.376L395.199 178.424L395.187 178.472L398.097 179.2ZM396.567 184.24L399.395 185.243L399.404 185.216L399.413 185.189L396.567 184.24ZM395.037 188.83L392.164 187.968L392.149 188.017L392.136 188.067L395.037 188.83ZM395.847 195.67L393.726 197.791L393.763 197.828L393.8 197.863L395.847 195.67ZM402.417 195.76L400.526 193.432L400.489 193.462L400.453 193.493L402.417 195.76ZM407.884 194.004C407.848 194.057 407.728 194.213 407.488 194.347C407.24 194.487 406.995 194.53 406.827 194.53V188.53C405.131 188.53 403.754 189.382 402.891 190.676L407.884 194.004ZM406.827 194.53C406.822 194.53 406.797 194.529 406.76 194.521C406.723 194.512 406.687 194.499 406.656 194.483C406.626 194.468 406.612 194.457 406.615 194.459C406.619 194.463 406.643 194.483 406.683 194.531L411.292 190.689C410.196 189.375 408.668 188.53 406.827 188.53V194.53ZM406.776 194.637C406.9 194.773 406.75 194.665 406.669 194.31C406.626 194.118 406.611 193.885 406.653 193.636C406.694 193.388 406.78 193.188 406.865 193.047L412.01 196.133C412.573 195.195 412.773 194.092 412.52 192.98C412.29 191.965 411.735 191.167 411.199 190.583L406.776 194.637ZM406.769 193.22L405.059 196.55L410.396 199.29L412.106 195.96L406.769 193.22ZM405.026 196.616C403.382 200.021 401.785 202.95 400.237 205.415L405.318 208.605C407.01 205.91 408.713 202.779 410.429 199.224L405.026 196.616ZM400.21 205.458C398.843 207.719 397.04 209.77 394.77 211.608L398.545 216.272C401.315 214.03 403.592 211.461 405.345 208.562L400.21 205.458ZM394.742 211.631C392.806 213.236 390.69 214 388.287 214V220C392.125 220 395.588 218.724 398.572 216.249L394.742 211.631ZM388.287 214C386.384 214 385.424 213.433 384.838 212.689C384.144 211.81 383.547 210.147 383.547 207.19H377.547C377.547 210.773 378.241 214.015 380.127 216.406C382.121 218.932 385.031 220 388.287 220V214ZM383.547 207.19C383.547 206.206 383.625 205.113 383.79 203.905L377.845 203.095C377.65 204.527 377.547 205.894 377.547 207.19H383.547ZM378.094 202.243C376.395 205.924 374.488 208.85 372.409 211.089L376.806 215.171C379.407 212.37 381.64 208.876 383.541 204.757L378.094 202.243ZM372.409 211.089C370.585 213.053 368.6 213.91 366.327 213.91V219.91C370.415 219.91 373.95 218.247 376.806 215.171L372.409 211.089ZM366.327 213.91C364.583 213.91 363.557 213.356 362.828 212.436L358.127 216.164C360.157 218.724 363.031 219.91 366.327 219.91V213.91ZM362.858 212.475C362.055 211.427 361.407 209.501 361.407 206.2H355.407C355.407 210.099 356.14 213.573 358.097 216.125L362.858 212.475ZM361.407 206.2C361.407 201.486 362.032 197.169 363.253 193.228L357.522 191.452C356.103 196.031 355.407 200.954 355.407 206.2H361.407ZM363.246 193.251C365.38 186.552 367.42 181.763 369.321 178.72L364.233 175.54C361.935 179.217 359.715 184.568 357.529 191.429L363.246 193.251ZM369.314 178.732C371.288 175.606 372.811 175 373.707 175V169C369.684 169 366.587 171.814 364.241 175.528L369.314 178.732ZM373.707 175C373.854 175 373.842 175.024 373.743 174.981C373.625 174.93 373.507 174.839 373.429 174.738C373.362 174.652 373.382 174.634 373.418 174.775C373.456 174.921 373.497 175.184 373.497 175.6H379.497C379.497 174.096 379.22 172.416 378.171 171.062C377.01 169.564 375.333 169 373.707 169V175ZM373.497 175.6C373.497 176.643 373.356 177.656 373.073 178.646L378.842 180.294C379.279 178.764 379.497 177.197 379.497 175.6H373.497ZM373.039 178.775C372.769 179.909 372.291 181.523 371.581 183.651L377.273 185.549C378.004 183.357 378.546 181.551 378.876 180.165L373.039 178.775ZM371.598 183.602C370.87 185.667 370.328 187.347 369.996 188.607L375.799 190.133C376.067 189.113 376.545 187.613 377.256 185.598L371.598 183.602ZM369.996 188.607C369.633 189.987 369.447 191.384 369.447 192.79H375.447C375.447 191.916 375.562 191.033 375.799 190.133L369.996 188.607ZM369.447 192.79C369.447 194.464 369.758 196.31 370.936 197.75L375.579 193.95C375.637 194.021 375.601 194.014 375.55 193.822C375.498 193.626 375.447 193.296 375.447 192.79H369.447ZM370.936 197.75C372.34 199.466 374.489 199.84 376.227 199.84V193.84C375.717 193.84 375.451 193.779 375.354 193.746C375.276 193.721 375.417 193.752 375.579 193.95L370.936 197.75ZM376.227 199.84C378.656 199.84 380.885 199.114 382.738 197.57C384.544 196.065 385.788 193.955 386.625 191.513L380.95 189.567C380.347 191.325 379.611 192.365 378.897 192.96C378.23 193.516 377.399 193.84 376.227 193.84V199.84ZM386.698 191.268L386.788 190.908L380.967 189.452L380.877 189.812L386.698 191.268ZM386.74 191.078C388.633 185.044 390.459 180.782 392.164 178.117L387.111 174.883C384.976 178.218 382.962 183.076 381.015 189.282L386.74 191.078ZM392.164 178.117C393.878 175.439 395.158 175 395.847 175V169C392.096 169 389.237 171.561 387.111 174.883L392.164 178.117ZM395.847 175C395.994 175 395.982 175.024 395.883 174.981C395.765 174.93 395.647 174.839 395.569 174.738C395.502 174.652 395.522 174.634 395.558 174.775C395.596 174.921 395.637 175.184 395.637 175.6H401.637C401.637 174.096 401.36 172.416 400.311 171.062C399.15 169.564 397.473 169 395.847 169V175ZM395.637 175.6C395.637 176.423 395.507 177.345 395.213 178.376L400.982 180.024C401.407 178.535 401.637 177.057 401.637 175.6H395.637ZM395.187 178.472C394.915 179.56 394.434 181.155 393.721 183.291L399.413 185.189C400.141 183.005 400.68 181.24 401.008 179.928L395.187 178.472ZM393.74 183.237C393.072 185.12 392.544 186.702 392.164 187.968L397.911 189.692C398.251 188.558 398.743 187.08 399.395 185.243L393.74 183.237ZM392.136 188.067C391.785 189.401 391.587 190.712 391.587 191.98H397.587C397.587 191.328 397.69 190.539 397.939 189.593L392.136 188.067ZM391.587 191.98C391.587 194.099 392.144 196.209 393.726 197.791L397.969 193.549C397.871 193.451 397.587 193.101 397.587 191.98H391.587ZM393.8 197.863C395.298 199.261 397.158 199.93 399.177 199.93V193.93C398.557 193.93 398.196 193.759 397.894 193.477L393.8 197.863ZM399.177 199.93C401.114 199.93 402.903 199.309 404.382 198.027L400.453 193.493C400.131 193.771 399.761 193.93 399.177 193.93V199.93ZM404.309 198.088C405.574 197.06 406.753 195.667 407.868 194.027L402.907 190.653C401.982 192.013 401.18 192.9 400.526 193.432L404.309 198.088ZM440.307 192.34L442.788 194.027L442.796 194.016L442.804 194.004L440.307 192.34ZM443.817 192.61L441.513 194.531L441.558 194.585L441.606 194.637L443.817 192.61ZM444.357 194.59L441.674 193.248L441.661 193.275L441.648 193.302L444.357 194.59ZM438.957 204.49L441.478 206.118L441.485 206.106L441.493 206.094L438.957 204.49ZM430.677 212.86L428.896 210.446L428.887 210.453L428.877 210.46L430.677 212.86ZM406.377 212.77L404.117 214.742L404.139 214.768L404.162 214.793L406.377 212.77ZM405.387 192.34L402.891 190.676L402.844 190.746L402.802 190.819L405.387 192.34ZM405.747 191.8L403.332 190.02L403.29 190.077L403.251 190.136L405.747 191.8ZM410.247 185.14L407.744 183.486L407.737 183.497L410.247 185.14ZM415.827 177.04L413.444 175.218L413.427 175.24L413.41 175.263L415.827 177.04ZM420.777 171.91L422.642 174.261L422.651 174.253L420.777 171.91ZM432.387 171.64L430.412 173.898L430.412 173.898L432.387 171.64ZM434.457 175.87L431.46 175.755L431.457 175.812V175.87H434.457ZM433.647 177.4L431.806 175.032L431.737 175.085L431.672 175.142L433.647 177.4ZM431.487 178.84L432.885 181.495L432.922 181.475L432.958 181.455L431.487 178.84ZM429.867 187.21L427.184 188.552L427.196 188.575L427.208 188.599L429.867 187.21ZM433.917 197.11L430.995 197.79L431.562 200.226L434.06 200.107L433.917 197.11ZM437.247 195.85L439.139 198.178L439.147 198.172L439.155 198.166L437.247 195.85ZM418.977 196.57L416.753 194.557L416.748 194.563L418.977 196.57ZM418.707 184.96L415.922 186.074L415.979 186.216L416.05 186.352L418.707 184.96ZM416.547 184.96L414.09 183.24L414.078 183.256L414.067 183.273L416.547 184.96ZM409.437 194.59L407.083 192.731L406.437 193.549V194.59H409.437ZM410.787 197.29L408.913 199.633L408.95 199.662L408.987 199.69L410.787 197.29ZM442.804 194.004C442.768 194.057 442.648 194.213 442.408 194.347C442.16 194.487 441.915 194.53 441.747 194.53V188.53C440.051 188.53 438.674 189.382 437.811 190.676L442.804 194.004ZM441.747 194.53C441.709 194.53 441.659 194.525 441.602 194.511C441.545 194.497 441.497 194.478 441.462 194.46C441.392 194.423 441.416 194.414 441.513 194.531L446.122 190.689C445.079 189.438 443.598 188.53 441.747 188.53V194.53ZM441.606 194.637C441.742 194.786 441.631 194.72 441.553 194.434C441.511 194.278 441.484 194.076 441.506 193.844C441.528 193.612 441.594 193.409 441.674 193.248L447.041 195.932C448.147 193.72 447.075 191.724 446.029 190.583L441.606 194.637ZM441.648 193.302C439.951 196.87 438.208 200.063 436.422 202.886L441.493 206.094C443.426 203.037 445.283 199.63 447.067 195.878L441.648 193.302ZM436.437 202.862C434.827 205.356 432.354 207.895 428.896 210.446L432.458 215.274C436.32 212.425 439.368 209.384 441.478 206.118L436.437 202.862ZM428.877 210.46C425.859 212.724 422.19 213.91 417.717 213.91V219.91C423.325 219.91 428.296 218.396 432.477 215.26L428.877 210.46ZM417.717 213.91C413.214 213.91 410.366 212.689 408.593 210.747L404.162 214.793C407.429 218.371 412.141 219.91 417.717 219.91V213.91ZM408.638 210.798C406.707 208.584 405.687 205.828 405.687 202.33H399.687C399.687 207.112 401.128 211.316 404.117 214.742L408.638 210.798ZM405.687 202.33C405.687 199.257 406.448 196.453 407.973 193.861L402.802 190.819C400.726 194.347 399.687 198.203 399.687 202.33H405.687ZM407.884 194.004L408.244 193.464L403.251 190.136L402.891 190.676L407.884 194.004ZM408.163 193.58C409.059 192.363 410.603 190.075 412.757 186.783L407.737 183.497C405.572 186.805 404.116 188.957 403.332 190.02L408.163 193.58ZM412.75 186.794C414.957 183.454 416.786 180.8 418.244 178.817L413.41 175.263C411.869 177.36 409.978 180.106 407.744 183.486L412.75 186.794ZM418.21 178.862C419.643 176.989 421.123 175.465 422.642 174.26L418.913 169.56C416.952 171.115 415.132 173.011 413.444 175.218L418.21 178.862ZM422.651 174.253C424.05 173.134 425.239 172.75 426.267 172.75V166.75C423.576 166.75 421.105 167.806 418.903 169.567L422.651 174.253ZM426.267 172.75C428.457 172.75 429.696 173.271 430.412 173.898L434.363 169.382C432.199 167.489 429.358 166.75 426.267 166.75V172.75ZM430.412 173.898C431.34 174.71 431.477 175.303 431.46 175.755L437.455 175.985C437.558 173.317 436.315 171.09 434.363 169.382L430.412 173.898ZM431.457 175.87C431.457 175.701 431.5 175.494 431.604 175.299C431.7 175.116 431.802 175.035 431.806 175.032L435.489 179.768C436.644 178.87 437.457 177.534 437.457 175.87H431.457ZM431.672 175.142C431.42 175.363 430.906 175.725 430.017 176.225L432.958 181.455C433.989 180.875 434.915 180.277 435.623 179.658L431.672 175.142ZM430.09 176.185C428.844 176.841 427.731 177.545 426.87 178.32L430.884 182.78C431.223 182.475 431.851 182.039 432.885 181.495L430.09 176.185ZM426.87 178.32C425.61 179.455 424.977 180.969 424.977 182.62H430.977C430.977 182.589 430.98 182.582 430.978 182.595C430.975 182.609 430.968 182.635 430.954 182.669C430.939 182.702 430.922 182.732 430.905 182.755C430.888 182.777 430.879 182.785 430.884 182.78L426.87 178.32ZM424.977 182.62C424.977 183.218 425.129 183.766 425.225 184.084C425.342 184.468 425.499 184.885 425.676 185.315C426.031 186.178 426.541 187.265 427.184 188.552L432.551 185.868C431.934 184.635 431.499 183.697 431.224 183.03C431.086 182.695 431.006 182.471 430.966 182.337C430.905 182.137 430.977 182.292 430.977 182.62H424.977ZM427.208 188.599C429.262 192.529 430.479 195.57 430.995 197.79L436.839 196.43C436.156 193.49 434.673 189.931 432.526 185.821L427.208 188.599ZM434.06 200.107C435.946 200.017 437.672 199.371 439.139 198.178L435.356 193.522C434.903 193.889 434.409 194.083 433.775 194.113L434.06 200.107ZM439.155 198.166C440.459 197.091 441.663 195.682 442.788 194.027L437.827 190.653C436.912 191.998 436.075 192.929 435.34 193.534L439.155 198.166ZM414.477 201.37C417.072 201.37 419.451 200.529 421.207 198.577L416.748 194.563C416.344 195.011 415.723 195.37 414.477 195.37V201.37ZM421.202 198.583C422.907 196.699 423.687 194.36 423.687 191.8H417.687C417.687 193.08 417.328 193.921 416.753 194.557L421.202 198.583ZM423.687 191.8C423.687 189.122 422.826 186.358 421.365 183.568L416.05 186.352C417.229 188.602 417.687 190.398 417.687 191.8H423.687ZM421.493 183.846C421.079 182.812 419.978 181.06 417.717 181.06V187.06C417.132 187.06 416.612 186.823 416.262 186.505C415.974 186.243 415.901 186.021 415.922 186.074L421.493 183.846ZM417.717 181.06C416.671 181.06 415.855 181.5 415.326 181.907C414.802 182.31 414.398 182.799 414.09 183.24L419.005 186.68C419.117 186.521 419.118 186.56 418.984 186.663C418.845 186.77 418.404 187.06 417.717 187.06V181.06ZM414.067 183.273C412.074 186.204 409.747 189.356 407.083 192.731L411.792 196.449C414.528 192.984 416.941 189.716 419.028 186.647L414.067 183.273ZM406.437 194.59C406.437 196.65 407.357 198.387 408.913 199.633L412.661 194.947C412.501 194.819 412.463 194.742 412.458 194.733C412.454 194.725 412.451 194.717 412.447 194.701C412.444 194.685 412.437 194.65 412.437 194.59H406.437ZM408.987 199.69C410.585 200.888 412.493 201.37 414.477 201.37V195.37C413.462 195.37 412.91 195.132 412.587 194.89L408.987 199.69Z" fill="black" mask="url(#path-2-outside-1_12_21)"/>
<path d="M156.018 249.792H167.626L167.051 252.603H158.787L158.105 255.862H165.752L165.198 258.461H157.551L156.763 262.188H165.155L164.559 265H152.844L156.018 249.792ZM172.546 256.991L168.989 249.792H172.632L174.783 254.819L178.681 249.792H182.643L176.316 257.14L180.087 265H176.402L174.016 259.568L169.671 265H165.645L172.546 256.991ZM182.11 258.631C182.11 257.396 182.302 256.224 182.685 255.117C183.068 254.009 183.615 253.036 184.325 252.199C185.049 251.347 185.923 250.672 186.945 250.175C187.982 249.678 189.139 249.43 190.417 249.43C191.439 249.43 192.369 249.572 193.207 249.856C194.045 250.125 194.755 250.537 195.337 251.091C195.919 251.645 196.367 252.326 196.679 253.136C197.006 253.945 197.169 254.883 197.169 255.948C197.169 257.197 196.984 258.39 196.615 259.526C196.246 260.662 195.706 261.663 194.996 262.529C194.301 263.395 193.434 264.084 192.398 264.595C191.375 265.092 190.197 265.341 188.862 265.341C186.704 265.341 185.035 264.766 183.856 263.615C182.692 262.465 182.11 260.804 182.11 258.631ZM185.454 258.631C185.454 259.157 185.518 259.654 185.646 260.122C185.788 260.591 185.994 261.01 186.263 261.379C186.547 261.734 186.902 262.018 187.328 262.231C187.769 262.444 188.294 262.551 188.905 262.551C189.728 262.551 190.445 262.359 191.056 261.975C191.666 261.578 192.178 261.074 192.589 260.463C193.001 259.838 193.307 259.15 193.505 258.397C193.718 257.644 193.825 256.906 193.825 256.182C193.825 255.642 193.761 255.138 193.633 254.67C193.52 254.187 193.328 253.768 193.058 253.413C192.788 253.058 192.44 252.774 192.014 252.561C191.588 252.348 191.063 252.241 190.438 252.241C189.586 252.241 188.841 252.44 188.202 252.838C187.577 253.221 187.059 253.725 186.647 254.35C186.249 254.961 185.951 255.649 185.752 256.416C185.553 257.169 185.454 257.907 185.454 258.631ZM203.821 252.603H199.05L199.647 249.792H212.341L211.745 252.603H207.187L204.588 265H201.223L203.821 252.603ZM214.052 249.792H217.418L214.201 265H210.857L214.052 249.792ZM229.067 255.074C229.067 254.137 228.811 253.434 228.3 252.966C227.803 252.483 227.15 252.241 226.34 252.241C225.488 252.241 224.743 252.44 224.104 252.838C223.479 253.221 222.961 253.725 222.549 254.35C222.151 254.961 221.853 255.649 221.654 256.416C221.456 257.169 221.356 257.907 221.356 258.631C221.356 259.157 221.42 259.654 221.548 260.122C221.69 260.591 221.896 261.01 222.166 261.379C222.45 261.734 222.805 262.018 223.231 262.231C223.671 262.444 224.196 262.551 224.807 262.551C225.261 262.551 225.687 262.472 226.085 262.316C226.497 262.146 226.859 261.926 227.171 261.656C227.483 261.372 227.746 261.045 227.959 260.676C228.172 260.307 228.314 259.923 228.385 259.526H231.729C231.388 260.591 230.984 261.493 230.515 262.231C230.061 262.969 229.542 263.573 228.96 264.041C228.392 264.496 227.753 264.823 227.043 265.021C226.347 265.234 225.588 265.341 224.764 265.341C222.606 265.341 220.937 264.766 219.759 263.615C218.594 262.465 218.012 260.804 218.012 258.631C218.012 257.396 218.204 256.224 218.587 255.117C218.971 254.009 219.517 253.036 220.227 252.199C220.951 251.347 221.825 250.672 222.847 250.175C223.884 249.678 225.041 249.43 226.319 249.43C227.199 249.43 228.016 249.55 228.769 249.792C229.521 250.033 230.167 250.395 230.707 250.878C231.261 251.347 231.687 251.936 231.985 252.646C232.283 253.342 232.425 254.151 232.411 255.074H229.067ZM242.22 259.952C242.192 260.491 242.256 260.946 242.412 261.315C242.568 261.67 242.795 261.954 243.093 262.167C243.392 262.38 243.747 262.536 244.158 262.636C244.57 262.721 245.018 262.763 245.5 262.763C245.841 262.763 246.182 262.721 246.523 262.636C246.864 262.55 247.169 262.423 247.439 262.252C247.723 262.082 247.95 261.862 248.12 261.592C248.305 261.322 248.397 260.996 248.397 260.612C248.397 260.243 248.284 259.945 248.056 259.718C247.829 259.476 247.531 259.27 247.162 259.1C246.807 258.93 246.395 258.78 245.926 258.653C245.472 258.525 245.01 258.39 244.542 258.248C244.059 258.106 243.59 257.935 243.136 257.737C242.682 257.538 242.27 257.282 241.901 256.97C241.546 256.658 241.255 256.274 241.027 255.82C240.814 255.365 240.708 254.811 240.708 254.158C240.708 253.306 240.885 252.582 241.24 251.986C241.595 251.389 242.057 250.906 242.625 250.537C243.193 250.154 243.832 249.877 244.542 249.707C245.266 249.522 245.997 249.43 246.736 249.43C247.517 249.43 248.248 249.522 248.93 249.707C249.625 249.877 250.229 250.161 250.74 250.559C251.266 250.956 251.677 251.467 251.976 252.092C252.288 252.703 252.444 253.448 252.444 254.329H249.27C249.285 253.903 249.221 253.548 249.079 253.264C248.951 252.966 248.759 252.724 248.504 252.539C248.262 252.355 247.971 252.227 247.63 252.156C247.29 252.071 246.927 252.028 246.544 252.028C246.232 252.028 245.912 252.064 245.586 252.135C245.273 252.192 244.989 252.298 244.734 252.454C244.478 252.596 244.272 252.788 244.116 253.029C243.96 253.271 243.882 253.569 243.882 253.924C243.882 254.293 244.016 254.606 244.286 254.861C244.57 255.103 244.904 255.308 245.287 255.479C245.685 255.635 246.09 255.763 246.501 255.862C246.913 255.948 247.247 256.019 247.503 256.075C248.099 256.231 248.646 256.416 249.143 256.629C249.64 256.828 250.066 257.091 250.421 257.417C250.79 257.744 251.074 258.141 251.273 258.61C251.471 259.079 251.571 259.654 251.571 260.335C251.571 261.244 251.379 262.018 250.996 262.657C250.627 263.296 250.144 263.814 249.547 264.212C248.965 264.61 248.305 264.893 247.566 265.064C246.828 265.249 246.097 265.341 245.373 265.341C243.243 265.341 241.652 264.908 240.601 264.041C239.565 263.175 239.046 261.812 239.046 259.952H242.22ZM255.883 249.792H259.333L263.466 260.612H263.508L265.681 249.792H268.748L265.532 265H262.188L258.013 254.329H257.97L255.798 265H252.688L255.883 249.792ZM275.888 249.792H279.317L281.852 265H278.529L278.039 261.613H272.352L270.435 265H266.921L275.888 249.792ZM273.673 259.121H277.741L276.996 253.072H276.953L273.673 259.121ZM294.964 255.074C294.964 254.137 294.708 253.434 294.197 252.966C293.7 252.483 293.047 252.241 292.237 252.241C291.385 252.241 290.64 252.44 290.001 252.838C289.376 253.221 288.858 253.725 288.446 254.35C288.048 254.961 287.75 255.649 287.551 256.416C287.352 257.169 287.253 257.907 287.253 258.631C287.253 259.157 287.317 259.654 287.445 260.122C287.587 260.591 287.793 261.01 288.062 261.379C288.346 261.734 288.701 262.018 289.127 262.231C289.568 262.444 290.093 262.551 290.704 262.551C291.158 262.551 291.584 262.472 291.982 262.316C292.393 262.146 292.756 261.926 293.068 261.656C293.38 261.372 293.643 261.045 293.856 260.676C294.069 260.307 294.211 259.923 294.282 259.526H297.626C297.285 260.591 296.881 261.493 296.412 262.231C295.958 262.969 295.439 263.573 294.857 264.041C294.289 264.496 293.65 264.823 292.94 265.021C292.244 265.234 291.485 265.341 290.661 265.341C288.503 265.341 286.834 264.766 285.656 263.615C284.491 262.465 283.909 260.804 283.909 258.631C283.909 257.396 284.101 256.224 284.484 255.117C284.867 254.009 285.414 253.036 286.124 252.199C286.848 251.347 287.722 250.672 288.744 250.175C289.781 249.678 290.938 249.43 292.216 249.43C293.096 249.43 293.913 249.55 294.665 249.792C295.418 250.033 296.064 250.395 296.604 250.878C297.158 251.347 297.584 251.936 297.882 252.646C298.18 253.342 298.322 254.151 298.308 255.074H294.964ZM301.997 249.792H305.341L304.021 256.16H304.063L310.964 249.792H315.395L308.089 256.054L312.754 265H308.983L305.512 258.163L303.19 260.186L302.189 265H298.845L301.997 249.792ZM317.561 259.952C317.532 260.491 317.596 260.946 317.752 261.315C317.908 261.67 318.136 261.954 318.434 262.167C318.732 262.38 319.087 262.536 319.499 262.636C319.911 262.721 320.358 262.763 320.841 262.763C321.182 262.763 321.522 262.721 321.863 262.636C322.204 262.55 322.509 262.423 322.779 262.252C323.063 262.082 323.29 261.862 323.461 261.592C323.645 261.322 323.738 260.996 323.738 260.612C323.738 260.243 323.624 259.945 323.397 259.718C323.17 259.476 322.871 259.27 322.502 259.1C322.147 258.93 321.735 258.78 321.267 258.653C320.812 258.525 320.351 258.39 319.882 258.248C319.399 258.106 318.931 257.935 318.476 257.737C318.022 257.538 317.61 257.282 317.241 256.97C316.886 256.658 316.595 256.274 316.368 255.82C316.155 255.365 316.048 254.811 316.048 254.158C316.048 253.306 316.226 252.582 316.581 251.986C316.936 251.389 317.397 250.906 317.965 250.537C318.533 250.154 319.172 249.877 319.882 249.707C320.606 249.522 321.338 249.43 322.076 249.43C322.857 249.43 323.588 249.522 324.27 249.707C324.966 249.877 325.569 250.161 326.081 250.559C326.606 250.956 327.018 251.467 327.316 252.092C327.628 252.703 327.785 253.448 327.785 254.329H324.611C324.625 253.903 324.561 253.548 324.419 253.264C324.291 252.966 324.1 252.724 323.844 252.539C323.603 252.355 323.312 252.227 322.971 252.156C322.63 252.071 322.268 252.028 321.884 252.028C321.572 252.028 321.253 252.064 320.926 252.135C320.614 252.192 320.33 252.298 320.074 252.454C319.818 252.596 319.612 252.788 319.456 253.029C319.3 253.271 319.222 253.569 319.222 253.924C319.222 254.293 319.357 254.606 319.627 254.861C319.911 255.103 320.244 255.308 320.628 255.479C321.025 255.635 321.43 255.763 321.842 255.862C322.254 255.948 322.587 256.019 322.843 256.075C323.439 256.231 323.986 256.416 324.483 256.629C324.98 256.828 325.406 257.091 325.761 257.417C326.13 257.744 326.414 258.141 326.613 258.61C326.812 259.079 326.911 259.654 326.911 260.335C326.911 261.244 326.72 262.018 326.336 262.657C325.967 263.296 325.484 263.814 324.888 264.212C324.306 264.61 323.645 264.893 322.907 265.064C322.168 265.249 321.437 265.341 320.713 265.341C318.583 265.341 316.993 264.908 315.942 264.041C314.905 263.175 314.387 261.812 314.387 259.952H317.561Z" fill="white"/>
<path d="M289 55C323.873 46.4931 336.357 34.5857 344 2.30404e-06C351.33 34.6346 362.895 47.1208 399 55C362.559 61.7343 352.462 75.6936 344 110C336.556 75.6786 324.945 63.2441 289 55Z" fill="black"/>
<path d="M309.526 54.9007C331.321 49.5839 339.124 42.1418 343.901 20.5257C348.482 42.1724 355.71 49.9763 378.276 54.9007C355.5 59.1097 349.189 67.8342 343.901 89.2757C339.248 67.8249 331.991 60.0533 309.526 54.9007Z" fill="white"/>
<path d="M138.5 286C145.847 316.118 156.131 326.899 186 333.5C156.088 339.831 145.305 349.819 138.5 381C132.684 349.528 120.628 340.808 91 333.5C120.641 327.071 131.38 317.043 138.5 286Z" fill="black"/>
<path d="M138.586 303.727C143.178 322.55 149.605 329.289 168.273 333.414C149.578 337.371 142.839 343.613 138.586 363.102C134.951 343.432 127.416 337.982 108.898 333.414C127.424 329.396 134.136 323.129 138.586 303.727Z" fill="white"/>
</svg>
